<?xml version="1.0" encoding="UTF-8"?>
<svg id="Layer_2" data-name="Layer 2" xmlns="http://www.w3.org/2000/svg" viewBox="0 0 11091.32 12327.6">
  <defs>
    <style>
      .cls-1 {
        fill: #999;
      }

      .cls-1, .cls-2, .cls-3, .cls-4, .cls-5, .cls-6, .cls-7, .cls-8, .cls-9, .cls-10, .cls-11, .cls-12, .cls-13, .cls-14, .cls-15, .cls-16, .cls-17, .cls-18, .cls-19, .cls-20, .cls-21, .cls-22, .cls-23, .cls-24, .cls-25, .cls-26, .cls-27 {
        stroke-width: 0px;
      }

      .cls-2 {
        fill: #4d4d4d;
      }

      .cls-3 {
        fill: #666;
      }

      .cls-4 {
        fill: #2a0001;
      }

      .cls-5 {
        fill: #95a5ff;
      }

      .cls-6 {
        fill: #fab28c;
      }

      .cls-7, .cls-28 {
        fill: #182a5e;
      }

      .cls-9 {
        fill: #1a1a1a;
      }

      .cls-10 {
        fill: #546782;
      }

      .cls-11 {
        fill: #95796e;
      }

      .cls-12 {
        fill: #3a3846;
      }

      .cls-13 {
        fill: #4c2aff;
      }

      .cls-14 {
        fill: gray;
      }

      .cls-15 {
        fill: #b3b3b3;
      }

      .cls-16 {
        fill: #333;
      }

      .cls-17 {
        fill: #fff;
      }

      .cls-29 {
        stroke: #000;
        stroke-width: .75px;
      }

      .cls-29, .cls-28 {
        stroke-miterlimit: 10;
      }

      .cls-18 {
        fill: #c9f5ff;
      }

      .cls-19 {
        fill: #4c5cff;
      }

      .cls-20 {
        fill: #4b2f20;
      }

      .cls-21 {
        fill: #df9474;
      }

      .cls-28 {
        stroke: #4c2aff;
        stroke-width: 43px;
      }

      .cls-22 {
        fill: #009abc;
      }

      .cls-23 {
        fill: #b8a3c1;
      }

      .cls-24 {
        fill: #575465;
      }

      .cls-25 {
        fill: #d79074;
      }

      .cls-26 {
        fill: #b8a5ff;
      }

      .cls-27 {
        fill: #d78b74;
      }
    </style>
  </defs>
  <g id="rocket">
    <path class="cls-17" d="m11050.71,40.85l-.16.16c-.01-.06-.02-.13-.03-.19.06,0,.13.02.19.03Z"/>
    <path class="cls-17" d="m11050.52,40.82c-.1-.02-.19-.04-.29-.05l.24-.24c.02.1.03.19.05.29Z"/>
  </g>
  <g id="arms">
    <g>
      <path class="cls-29" d="m2824.78,1896.26c-61.03,183.1,40.69,244.13-244.13,508.6-2.91,2.71-8.11,3.37-15.29,2.31-108.99-16-675.14-427.25-656.06-83.69,0,0,0,61.03-61.03,142.41-40.84,54.46-127.24,118.02-173.83,239.48l-5.14,6.78c-7.77,17.42-12.49,39.55-15.22,62.65-9.59,45.7-13.59,98.18-9.25,159,0,0-61.03,0-81.37-122.06-20.35-122.07-40.69-508.6-101.72-447.57-60.89,60.89-344.57,142.04-62.94,526.34.25.34.48.65.68.93.2.27.38.52.53.72.46.63.7.95.7.95h-.01c-.97,1.76-102.88,183.69-345.84,305.16,0,0-427.22-508.6-284.81-834.1,142.4-325.5,223.78-834.1,773.06-813.76,0,0,1098.57,122.07,1159.61,40.69,0,0,183.09,122.07,122.06,305.16Z"/>
      <path class="cls-29" d="m1399.48,2891.44c.18.24.35.48.53.72-.15-.2-.33-.45-.53-.72Z"/>
      <path class="cls-29" d="m1674.44,2705.37c-8.17,21.28-15.11,44.33-20.36,69.43,2.73-23.1,7.45-45.23,15.22-62.65l5.14-6.78Z"/>
      <path class="cls-27" d="m1054.22,3205.19s233.32-104.37,346.48-312.08l22.02,397.79s7.16,183.48,210.13,329.53c202.96,146.05-7.3,0-7.3,0,0,0,445.77,327.66,479.68,323.61,0,0-322.55-84.48-376.06-93.07,0,0-.53,290.67,61.04,429.57,0,0,93.07,121.71-4.3,101.66,0,0-214.3,2.67-294.88-40.67,0,0-269.82-91.57-327.81-128.19,0,0,96.88-812.38-109.01-1008.15Z"/>
      <path class="cls-25" d="m1730.68,3916.32s-201.59-192.45-236-93.8c-34.41,98.65,118,550.02,118,550.02,0,0,217.31,25.96,215.98,0-1.33-25.96-97.98-456.22-97.98-456.22Z"/>
      <path class="cls-6" d="m2570.48,2415.03s58.51,138.58,49.6,364.27c-8.91,225.7.92,291.29.92,291.29,0,0,102.06,66.64,102.06,188.71,0,122.06-142.41,81.38-142.41,81.38,0,0-81.38,325.5-101.72,386.53-20.34,61.03-61.03,244.13-284.81,223.78,0,0-142.41-20.34-223.78-81.38-81.38-61.03-447.57-345.85-447.57-345.85,0,0-101.72-122.06-101.72-264.47s-20.34-366.19-20.34-366.19c0,0-223.78-305.16-40.69-447.57l125-82.56s55.23,184.28,46.49,275.83c-8.74,91.55,62.26,335.67,108.14,305.16,45.88-30.52-50.03-152.58,79.3-305.16,0,0,88.64-132.24,129.33-152.58,40.69-20.34,91.27-152.41,69.64-184.13-21.63-31.72,37.49-147.07,167.25-95.16,0,0,282.1,111.02,342.91,147.07,60.8,36.05,101.46,52.83,142.41,61.02Z"/>
      <path class="cls-6" d="m2065.99,2375.1h-6.64c-.78,0-1.54.69-1.5,1.5s.66,1.5,1.5,1.5h6.64c.78,0,1.54-.69,1.5-1.5s-.66-1.5-1.5-1.5h0Z"/>
      <path class="cls-6" d="m1923.22,2302.52c.98,8.04.16,16.11-1.24,24.05s-3.14,15.73-4.77,23.58c-3.09,14.93-6.01,29.92-9.61,44.74s-7.66,28.56-13.52,42.13c-5.56,12.87-12.71,24.99-21.45,35.96-9.52,11.94-20.79,22.45-33.36,31.12l.45.59c9.92-11.99,19.28-24.44,28.04-37.3s17.04-26.34,24.6-40.07c4.29-7.79,8.37-15.7,12.24-23.71l-.69-.29c-5.7,17.11-14.31,33.06-24.52,47.88s-22.15,28.75-34.46,42.05c-6.92,7.48-14,14.81-21.09,22.12-.34.35.19.88.53.53,12.78-13.18,25.52-26.41,37.34-40.47s22.29-28.36,30.85-44.22c4.79-8.88,8.88-18.13,12.07-27.7.13-.4-.5-.67-.69-.29-6.79,14.05-14.22,27.79-22.3,41.14-8.03,13.29-16.69,26.2-25.93,38.69-5.32,7.18-10.83,14.22-16.53,21.11-.25.3.08.85.45.59,22.64-15.61,40.91-37.13,52.66-61.99,12.89-27.27,18.36-57.27,24.42-86.6,1.86-8.99,3.83-17.96,5.53-26.97s2.79-17.73,1.7-26.65c-.06-.47-.81-.48-.75,0h0Z"/>
      <path class="cls-6" d="m1794.84,2561.37c-2.37,1.92-4.74,3.84-7.11,5.76-1.17.95-2.33,1.89-3.5,2.84-.54.44-1.09.97-1.76,1.21-.37.13-.75.19-1.08-.05-.26-.19-.55-.61-.29-.92.3-.37-.22-.9-.53-.53-.7.85-.08,2.07.93,2.33,1.53.39,3.09-1.38,4.13-2.22,3.24-2.63,6.49-5.26,9.73-7.89.38-.3-.16-.83-.53-.53h0Z"/>
      <path class="cls-6" d="m1787.41,2557.75c-4.44,4.44-8.88,8.87-13.33,13.31-4.17,4.16-8.42,8.27-12.33,12.68s-7.05,9.09-10.12,14.02-6.28,9.71-9.79,14.31c-4.01,5.25-8.34,10.26-12.94,15.01-.34.35.19.88.53.53,7.9-8.16,14.98-17.09,21.09-26.66,3.27-5.12,6.33-10.3,10.27-14.95s7.95-8.53,12.07-12.64c5.03-5.02,10.05-10.04,15.08-15.06.34-.34-.19-.87-.53-.53h0Z"/>
      <path class="cls-6" d="m1658.98,2882.81c-.54,9.85-1.08,19.7-1.63,29.55-.47,8.46.11,18.4-5.29,25.5-4.11,5.4-10.81,8.23-17.42,8.92-7.4.76-14.54-1.19-21.02-4.72-8.26-4.51-15.14-11.09-21.88-17.57l-.36.63c7.66,3.16,14.84,7.1,22.06,11.15,6.23,3.49,12.98,6.83,20.29,6.8,13.85-.07,24.21-11.59,30.15-22.96,4.05-7.74,6.9-16.04,10.67-23.92.21-.43-.44-.81-.65-.38-6.19,12.95-10.08,27.75-20.85,37.88-4.82,4.53-10.92,8.03-17.62,8.55-7.42.58-14.34-2.6-20.68-6.1-7.62-4.21-15.12-8.42-23.19-11.75-.36-.15-.62.38-.36.63,11.27,10.84,24.47,23.27,41.25,22.66,6.58-.24,13.34-2.41,18.15-7.06,6.15-5.95,6.74-14.48,7.18-22.54.65-11.75,1.29-23.51,1.94-35.26.03-.48-.72-.48-.75,0h0Z"/>
      <path class="cls-6" d="m1526.85,2630.06c.13,21.13.88,42.26,2.26,63.36,1.33,20.31,3.15,40.63,6.68,60.69,1.99,11.29,4.53,22.49,7.81,33.48.12.39.79.34.74-.1-2.72-21.08-5.04-42.2-6.95-63.37-.95-10.54-1.79-21.09-2.54-31.65-.72-10.27-1.34-20.56-2.34-30.81-1.12-11.45-2.74-22.87-5.48-34.05-.11-.47-.84-.27-.72.2,4.92,20.06,6.15,40.74,7.56,61.27,1.44,21.01,3.28,41.99,5.52,62.93,1.27,11.84,2.67,23.66,4.2,35.47l.74-.1c-5.83-19.53-9.3-39.67-11.55-59.9s-3.56-41.32-4.37-62.01c-.46-11.8-.72-23.6-.8-35.41,0-.48-.75-.48-.75,0h0Z"/>
      <path class="cls-6" d="m1543.37,2779.35c.41,6.57,1.55,13.07,3.4,19.39.14.46.86.27.72-.2-1.84-6.25-2.97-12.68-3.38-19.19-.03-.48-.78-.48-.75,0h0Z"/>
      <path class="cls-6" d="m1478.4,2369.17c-3.05,5.4-7.62,9.75-13.15,12.55l.51.51c1.78-3.14,4.34-5.68,7.5-7.43l-.51-.51c-3.25,4.4-7.53,7.85-11.94,11.04-4.65,3.36-9.38,6.61-14.09,9.89-9.78,6.81-19.6,13.56-29.45,20.25-5.57,3.78-11.16,7.55-16.76,11.3l.45.59c9.06-7.52,18.34-14.78,27.83-21.76.38-.28.01-.93-.38-.65-9.54,7.02-18.87,14.31-27.98,21.87-.33.27.1.83.45.59,20.08-13.44,40.14-26.99,59.79-41.06,4.71-3.37,9.27-7,12.73-11.68.24-.32-.21-.68-.51-.51-3.26,1.81-5.93,4.45-7.77,7.7-.19.34.18.68.51.51,5.64-2.85,10.32-7.31,13.42-12.81.24-.42-.41-.8-.65-.38h0Z"/>
      <path class="cls-6" d="m1487.82,2405.07c.2,3.95.41,7.89.61,11.84.02.48.78.48.75,0-.2-3.95-.41-7.89-.61-11.84-.02-.48-.78-.48-.75,0h0Z"/>
      <path class="cls-6" d="m1486.91,2401.87c.28,2.7.55,5.4.83,8.09l.41,3.98c.07.66.1,1.33.2,1.99.06.38.15.56.51.7.45.18.64-.55.2-.72-.06-.02-.13-1.58-.14-1.68l-.17-1.7-.36-3.55c-.24-2.37-.49-4.73-.73-7.1-.05-.48-.8-.48-.75,0h0Z"/>
      <path class="cls-6" d="m1488.46,2406.7c1.14,7.36,4.82,13.89,7.52,20.74,2.91,7.38,4.15,15.22,4.68,23.1.3,4.5.39,9.02.47,13.53,0,.48.76.48.75,0-.14-7.87-.3-15.78-1.59-23.57-.64-3.88-1.56-7.71-2.89-11.41-1.23-3.41-2.77-6.7-4.21-10.03-1.75-4.05-3.33-8.18-4.01-12.56-.07-.48-.8-.27-.72.2h0Z"/>
      <path class="cls-6" d="m1485.8,2398.37c4.03,8.78,7.41,17.85,10.12,27.12.14.46.86.27.72-.2-2.73-9.34-6.14-18.46-10.2-27.3-.2-.44-.85-.06-.65.38h0Z"/>
      <path class="cls-6" d="m1305.76,2532.21c-3.56,4.98-5.08,11.35-7.05,17.06-1.01,2.93-2,5.88-2.45,8.96s-.51,6.26-1.57,9.24l.72.2c.35-1.33.4-2.63.17-3.99-.06-.36-.67-.36-.72,0-1.62,10.11-2.69,20.3-3.19,30.52h.75c.18-5.47.35-10.94.53-16.41.02-.48-.73-.48-.75,0-.18,5.47-.35,10.94-.53,16.41-.02.48.73.48.75,0,.49-10.16,1.55-20.28,3.16-30.32h-.72c.21,1.23.14,2.39-.17,3.59-.12.47.56.65.72.2.97-2.73,1.12-5.6,1.47-8.45.39-3.21,1.35-6.26,2.4-9.31s2.03-5.94,3.08-8.91,2.22-5.86,4.05-8.42c.28-.39-.37-.77-.65-.38h0Z"/>
      <path class="cls-6" d="m1291.43,2593.54l.1,1.87h.75c-.13-1.01-.27-2.01-.4-3.02-.06-.47-.81-.48-.75,0,.53,4.31.09,8.67,0,13s-.04,8.64.13,12.96c.34,8.39.97,16.95,2.58,25.21.92,4.7,2.91,9.2,3.21,14.02l.7-.19c-.45-1.05-.89-2.1-1.34-3.15-.18-.42-.74-.09-.69.29,1.29,8.33,3.57,16.47,6.8,24.25.18.44.91.25.72-.2-3.23-7.79-5.51-15.92-6.8-24.25l-.69.29c.45,1.05.89,2.1,1.34,3.15.15.34.72.17.7-.19-.25-4.03-1.7-7.8-2.67-11.69-1.06-4.22-1.55-8.59-2.02-12.91-.94-8.59-1.36-17.24-1.26-25.87.06-4.88.62-9.85.03-14.71h-.75c.13,1.01.27,2.01.4,3.02.06.46.78.5.75,0l-.1-1.87c-.02-.48-.77-.48-.75,0h0Z"/>
      <path class="cls-6" d="m1300.79,2673.8c1.07,1.4.76,3.16.86,4.81.1,1.55.72,2.48,1.49,3.76,1.05,1.75.88,3.92,1.24,5.87.38,2.06,1.02,4.07,1.67,6.05,2.59,7.95,5.61,15.81,8.76,23.55,1.72,4.22,3.54,8.39,5.53,12.48.21.43.86.05.65-.38-3.66-7.54-6.74-15.33-9.66-23.18-1.45-3.9-2.92-7.81-4.25-11.76-.69-2.06-1.37-4.14-1.83-6.27-.41-1.88-.28-3.96-.97-5.76-.29-.76-.79-1.37-1.21-2.06-.57-.94-.67-1.96-.69-3.04-.03-1.57.06-3.16-.94-4.47-.29-.38-.94,0-.65.38h0Z"/>
      <path class="cls-6" d="m1320.78,2730.03c.1,1.17.58,2.18,1.1,3.21.58,1.17,1.19,2.33,1.82,3.48,1.28,2.35,2.64,4.65,4.08,6.9.18.29.74.21.7-.19-.11-1.05-.6-1.88-1.24-2.71-.85-1.1-1.75-2.16-2.62-3.24-.27-.34-.79.09-.59.45,1.44,2.56,2.87,5.14,4.27,7.72l.59-.45c-.67-.65-1.24-1.35-1.72-2.15-.26-.42-.85-.05-.65.38.55,1.17,1.19,2.28,1.93,3.34.23.32.83.14.69-.29l-.61-1.77c-.16-.45-.88-.26-.72.2l.61,1.77.69-.29c-.74-1.06-1.38-2.17-1.93-3.34l-.65.38c.52.85,1.13,1.61,1.84,2.3.31.3.79-.08.59-.45-1.4-2.58-2.83-5.16-4.27-7.72l-.59.45c.69.85,1.38,1.7,2.07,2.55s1.45,1.73,1.57,2.86l.7-.19c-1.33-2.08-2.59-4.19-3.78-6.35-.58-1.06-1.15-2.12-1.69-3.19-.59-1.16-1.3-2.35-1.42-3.68-.04-.48-.79-.48-.75,0h0Z"/>
      <path class="cls-6" d="m1306.46,2530.11c-.04.23-.09.45-.15.67-.03.11-.06.22-.1.33-.02.05-.04.11-.06.16-.02.06.02-.04,0,.02-.01.03-.03.06-.04.09-.04.09-.09.19-.15.28-.03.05-.06.09-.09.13.04-.05-.01.01-.02.02-.02.02-.03.04-.05.05-.04.04-.07.08-.11.11,0,0-.08.06-.04.04.03-.02-.03.02-.03.02-.04.03-.09.06-.14.08-.02.01-.04.02-.06.03-.1.05.06-.02-.05.02l.46.46c.19-.92.47-1.83.86-2.69.08-.18.05-.4-.13-.51-.16-.09-.43-.05-.51.13-.42.92-.74,1.88-.94,2.87-.05.26.17.57.46.46,1.07-.39,1.43-1.55,1.62-2.58.04-.2-.06-.4-.26-.46-.18-.05-.42.06-.46.26h0Z"/>
      <path class="cls-6" d="m2001.6,2198.11c-10.35,1.75-21.2,2.94-30.66,7.79l.15.26c1.44-.8,2.88-1.6,4.32-2.41.15-.08.05-.33-.12-.27-6.99,2.3-13.57,5.69-19.5,10.06l.18.24c1.59-1.56,3.38-2.82,5.37-3.81l-.18-.24c-3.49,2.71-7.64,4.36-11.17,7s-6.07,6.11-8.74,9.41c-5.24,6.47-10.23,13.34-12.7,21.38-.06.18.23.26.29.08,2.54-8.28,7.75-15.29,13.16-21.92,2.73-3.35,5.41-6.85,9.01-9.32,3.36-2.31,7.14-3.92,10.37-6.43.14-.11-.04-.31-.18-.24-2.02,1-3.83,2.29-5.43,3.86-.12.12.04.34.18.24,5.91-4.35,12.46-7.73,19.43-10.03l-.12-.27c-1.44.8-2.88,1.6-4.32,2.41-.17.09-.02.35.15.26,9.43-4.84,20.27-6.02,30.59-7.76.19-.03.11-.32-.08-.29h0Z"/>
      <path class="cls-6" d="m1996.64,2198.89c-2.28.74-4.67,1-7.06.79-.19-.02-.19.28,0,.3,2.41.22,4.84-.05,7.14-.8.18-.06.1-.35-.08-.29h0Z"/>
      <path class="cls-6" d="m2055.07,2200.48c15.38,2.72,30.62,6.18,45.67,10.37,7.37,2.05,14.69,4.28,21.95,6.68,3.78,1.25,7.55,2.55,11.3,3.89.9.32,1.8.65,2.7.98.44.16,2.05.48,2.24.83.74,1.29-4.79.83-5.34.77-4.44-.46-8.81-1.55-13.17-2.49s-9.1-1.97-13.65-2.95l-.04.29c2.56.27,5.05.84,7.47,1.7.18.07.26-.22.08-.29-2.45-.88-4.97-1.45-7.55-1.72-.17-.02-.2.26-.04.29,6.31,1.36,12.63,2.74,18.94,4.09,2.79.59,5.59,1.15,8.43,1.41,1.54.14,4.61.79,5.49-1.02.05-.09,0-.18-.09-.22-21.29-7.91-43.12-14.32-65.31-19.17-6.31-1.38-12.64-2.62-18.99-3.75-.19-.03-.27.26-.08.29h0Z"/>
      <path class="cls-6" d="m2139.35,2223.28c21.83,6.9,43.17,15.26,64.22,24.25,21.08,9,41.89,18.6,62.75,28.09,12.04,5.48,24.07,10.95,36.11,16.43.17.08.33-.18.15-.26-21.37-9.72-42.73-19.47-64.12-29.15-20.67-9.35-41.43-18.54-62.59-26.75-12.02-4.67-24.16-9.01-36.45-12.89-.18-.06-.26.23-.08.29h0Z"/>
      <path class="cls-6" d="m2135.79,2228.65c20.91,5.8,41.85,11.62,62.17,19.3,5.91,2.23,11.76,4.63,17.53,7.21l.12-.27c-12.03-3-24.06-5.99-36.09-8.99-.19-.05-.25.22-.08.29,9.14,3.84,18.28,7.67,27.42,11.51,4.49,1.88,8.96,3.8,13.47,5.64s8.64,3.32,13.19,4.17c.19.04.26-.22.08-.29-6.09-2.52-12.29-4.77-18.59-6.74l-.04.29c.64,0,1.21-.19,1.64-.69.11-.13.37-.88.47-.93.29-.15,1.03.38,1.34.53,2.26,1.12,4.55,2.16,6.87,3.14,4.59,1.95,9.27,3.68,13.98,5.33,9.67,3.38,19.47,6.4,28.93,10.33,5.42,2.25,10.72,4.81,15.75,7.84l.12-.27c-5.4-1-10.66-2.59-15.71-4.76l-.12.27c10.96,3.83,21.92,7.67,32.88,11.5.18.06.26-.23.08-.29-10.96-3.83-21.92-7.67-32.88-11.5-.16-.06-.27.21-.12.27,5.07,2.18,10.35,3.79,15.78,4.79.16.03.27-.18.12-.27-16.14-9.74-34.6-14.23-52.07-20.86-5.1-1.94-10.13-4.07-14.99-6.56-.1-.05-.22.01-.23.13-.06.96-.89,1.7-1.83,1.69-.17,0-.2.24-.04.29,6.29,1.97,12.49,4.22,18.59,6.74l.08-.29c-4.56-.85-8.91-2.42-13.19-4.17-4.51-1.84-8.98-3.76-13.47-5.64-9.14-3.84-18.28-7.67-27.42-11.51l-.08.29c12.03,3,24.06,5.99,36.09,8.99.16.04.28-.2.12-.27-19.98-8.94-40.89-15.52-61.91-21.53-5.94-1.7-11.9-3.35-17.86-5.01-.19-.05-.27.24-.08.29h0Z"/>
      <path class="cls-6" d="m2303.36,2293.04c5.52,3.44,11.53,5.97,17.42,8.67s12.15,5.67,18.17,8.61c12.04,5.88,23.95,12.05,35.71,18.48,6.58,3.6,13.11,7.29,19.59,11.06.17.1.32-.16.15-.26-23.17-13.48-46.97-25.89-71.3-37.16-6.6-3.06-13.41-5.82-19.59-9.68-.16-.1-.32.16-.15.26h0Z"/>
      <path class="cls-6" d="m2349.05,2323.54c-13.12-.95-26.18-2.68-39.09-5.18-.19-.04-.27.25-.08.29,12.94,2.5,26.03,4.24,39.17,5.19.19.01.19-.29,0-.3h0Z"/>
      <path class="cls-16" d="m1753.73,3706.62c2.97,1.5,5.81,3.26,8.47,5.25.63.47,1.7.12,2.05-.54.42-.79.13-1.55-.54-2.05-2.67-2-5.5-3.75-8.47-5.25-.7-.35-1.66-.21-2.05.54-.36.68-.21,1.67.54,2.05h0Z"/>
      <path class="cls-6" d="m1752.19,3706.04c2.41.91,4.82,1.84,7.2,2.84,1.14.48,2.28.98,3.41,1.5,1,.46,2.16.87,3.02,1.57l1.82-2.36c-4.07-2.99-8.88-4.94-13.89-5.63-1.48-.2-2.49,1.29-1.46,2.51.67.79,1.64,1.32,2.52,1.85.92.55,1.86,1.08,2.77,1.65,1.6,1,3.17,2.13,4.25,3.72l2.36-1.82c-3.06-3.03-6.64-5.39-10.18-7.82-1.6-1.1-3.09,1.5-1.51,2.59,3.62,2.51,7.34,4.87,11.16,7.06,1.71.98,3.05-1.48,1.51-2.59-4.54-3.3-9.41-6.1-14.55-8.36-1.53-.68-3,1.02-1.82,2.36,1,1.14,2.25,2.02,3.56,2.76.63.36,1.27.69,1.91,1.03.47.25,1.27.52,1.6.97l.9-2.2c-.36.11-.9-.2-1.24-.34-.55-.22-1.07-.5-1.61-.75-1.09-.52-2.19-1.02-3.36-1.33-1.87-.49-2.67,2.4-.8,2.89,1.31.34,2.49.97,3.71,1.54s2.69,1.32,4.09.88c.85-.26,1.49-1.38.9-2.2-.95-1.33-2.47-1.92-3.87-2.68s-2.64-1.52-3.67-2.69l-1.82,2.36c5.13,2.27,10.01,5.07,14.55,8.36l1.51-2.59c-3.82-2.2-7.54-4.55-11.16-7.06l-1.51,2.59c3.33,2.29,6.69,4.5,9.57,7.35,1.18,1.16,3.34-.37,2.36-1.82-1.2-1.76-2.78-3.13-4.55-4.3-.94-.62-1.92-1.18-2.89-1.75-.87-.51-1.91-.99-2.57-1.77l-1.46,2.51c4.79.66,9.27,2.47,13.17,5.32,1.36,1,3.14-1.28,1.82-2.36-2.03-1.65-4.73-2.57-7.12-3.58-2.59-1.09-5.21-2.11-7.83-3.1-.76-.29-1.64.32-1.85,1.05-.23.84.29,1.56,1.05,1.85h0Z"/>
      <path class="cls-6" d="m1755.37,3704.29c-2.12-3.19-5.11-5.51-8.72-6.8-1.72-.61-2.42,1.81-1.16,2.74,3.02,2.21,6.24,4.1,9.65,5.64,1.73.78,3.19-1.55,1.51-2.59-3.51-2.17-7.19-4-11.02-5.52-1.17-.46-2.46,1.18-1.69,2.2,2.17,2.88,5.05,4.95,8.53,5.96,1.74.51,2.45-1.78,1.16-2.74-2-1.48-4.31-2.45-6.77-2.83-1.34-.21-2.69,1.4-1.46,2.51,8.28,7.45,19.63,9.82,28.27,16.7l1.46-2.51c-3.16-1.1-6.19-2.47-9.11-4.1-1.43-.8-3.15,1.21-1.82,2.36,4,3.42,8.23,6.56,12.68,9.37,1.43.9,3.08-1.2,1.82-2.36-4.82-4.44-10.22-8.2-16.07-11.14-1.76-.89-3.04,1.45-1.51,2.59,8.27,6.2,16.82,12.02,25.61,17.46l1.51-2.59c-4.49-2.66-9.19-4.92-14.06-6.8-1.7-.66-2.42,1.82-1.16,2.74,6.6,4.82,13.37,9.41,20.28,13.78,1.23.78,2.92-.81,2.05-2.05-4.38-6.32-10.43-11.35-17.52-14.35-1.75-.74-3.15,1.48-1.51,2.59,3.41,2.31,6.83,4.62,10.24,6.93s6.58,4.5,10.11,6.36c1.44.76,3.15-1.18,1.82-2.36-7.12-6.32-15.07-11.65-23.65-15.78-1.78-.86-3.03,1.43-1.51,2.59,4.14,3.18,8.22,6.46,12.21,9.82,3.54,2.98,6.99,6.71,11.54,8.08,1.34.4,2.23-1.08,1.69-2.2-.91-1.89-3.13-3.2-4.79-4.38-1.93-1.37-3.95-2.61-6-3.79-4.15-2.39-8.4-4.6-12.54-7s-8.55-4.59-11.84-7.98c-1.63-1.68-3.08-3.53-4.82-5.11s-3.63-2.94-5.47-4.37c-4.2-3.24-7.9-7.05-10.92-11.43l-2.05,2.05c2.24,1.33,4.48,2.67,6.72,4,1.42.84,3.19-1.28,1.82-2.36-3.41-2.67-7.07-4.82-11.07-6.5-1.55-.65-2.71,2.05-1.16,2.74,2.43,1.09,4.87,2.18,7.3,3.27,1.75.78,3.14-1.49,1.51-2.59-3.36-2.28-6.93-4.16-10.67-5.72-1.67-.7-2.43,1.83-1.16,2.74l13.39,9.54,1.51-2.59c-3.54-1.99-7.08-3.98-10.61-5.97-1.43-.81-3.15,1.21-1.82,2.36,3.2,2.75,6.7,5.08,10.5,6.92,1.73.84,3.14-1.52,1.51-2.59-2.32-1.53-4.71-2.92-7.18-4.18-1.54-.78-2.94,1.06-1.82,2.36,3.26,3.77,7.22,6.89,11.64,9.18,1.71.89,3.18-1.6,1.51-2.59-2.97-1.77-6.03-3.35-9.19-4.74-1.41-.62-3.26,1.18-1.82,2.36,2.2,1.78,4.45,3.49,6.78,5.1,1.41.98,3.03-1.19,1.82-2.36-3.17-3.04-6.75-5.6-10.66-7.58-1.74-.88-3.08,1.48-1.51,2.59,1.8,1.28,3.74,2.25,5.81,2.99,1.41.5,2.55-1.53,1.46-2.51-2.91-2.63-5.97-5.08-9.16-7.36-1.57-1.12-3.07,1.48-1.51,2.59,2.98,2.13,5.83,4.43,8.56,6.89l1.46-2.51c-1.83-.65-3.51-1.56-5.09-2.69l-1.51,2.59c3.7,1.87,7.07,4.24,10.06,7.12l1.82-2.36c-2.11-1.47-4.17-3.01-6.17-4.63l-1.82,2.36c3.16,1.4,6.23,2.98,9.19,4.74l1.51-2.59c-4.22-2.19-7.92-5.12-11.03-8.71l-1.82,2.36c2.47,1.26,4.87,2.65,7.18,4.18l1.51-2.59c-3.56-1.73-6.89-3.87-9.9-6.46l-1.82,2.36c3.54,1.99,7.08,3.98,10.61,5.97,1.71.96,3.06-1.49,1.51-2.59l-13.39-9.54-1.16,2.74c3.5,1.46,6.82,3.3,9.96,5.42l1.51-2.59c-2.43-1.09-4.87-2.18-7.3-3.27l-1.16,2.74c3.47,1.46,6.77,3.41,9.74,5.73l1.82-2.36c-2.24-1.33-4.48-2.67-6.72-4-1.23-.74-2.93.78-2.05,2.05,2.64,3.83,5.73,7.33,9.28,10.34s7.35,5.56,10.48,9.07c1.55,1.74,3.12,3.38,5.01,4.76s3.91,2.55,5.9,3.74c4.24,2.54,8.56,4.92,12.89,7.3,2.34,1.29,4.66,2.6,6.9,4.05,1.06.68,2.09,1.39,3.1,2.14s2.27,1.51,2.82,2.65l1.69-2.2c-2.21-.66-4.04-2.05-5.78-3.52-1.85-1.57-3.67-3.15-5.53-4.7-3.84-3.2-7.75-6.32-11.72-9.36l-1.51,2.59c8.35,4.02,16.11,9.15,23.04,15.31l1.82-2.36c-3.53-1.86-6.81-4.13-10.11-6.36l-10.24-6.93-1.51,2.59c6.61,2.8,12.35,7.36,16.44,13.27l2.05-2.05c-6.91-4.36-13.68-8.96-20.28-13.78l-1.16,2.74c4.63,1.78,9.08,3.96,13.34,6.49,1.67.99,3.15-1.58,1.51-2.59-8.79-5.44-17.33-11.27-25.61-17.46l-1.51,2.59c5.63,2.83,10.82,6.4,15.46,10.67l1.82-2.36c-4.24-2.68-8.27-5.64-12.07-8.9l-1.82,2.36c3.14,1.75,6.43,3.22,9.83,4.4,1.36.48,2.63-1.57,1.46-2.51-8.63-6.88-20.03-9.29-28.27-16.7l-1.46,2.51c2.24.35,4.23,1.18,6.06,2.53l1.16-2.74c-2.67-.78-5.05-2.35-6.73-4.58l-1.69,2.2c3.59,1.42,7.02,3.18,10.31,5.22l1.51-2.59c-3.41-1.54-6.63-3.42-9.65-5.64l-1.16,2.74c2.84,1.01,5.26,2.91,6.92,5.42,1.06,1.6,3.66.1,2.59-1.51h0Z"/>
      <path class="cls-27" d="m1536.97,3538.39c1.99,1.99,3.99,3.99,5.98,5.98l2.12-2.12c-1.31-1.25-2.62-2.49-3.92-3.74l-1.82,2.36c18.35,12.41,35.57,26.47,53.05,40.06s35.63,27.71,53.44,41.56c10.06,7.82,20.11,15.64,30.17,23.47,1.51,1.17,3.64-.94,2.12-2.12-17.94-13.96-35.89-27.91-53.83-41.87s-35.76-27.85-53.67-41.74c-9.74-7.56-19.55-15.04-29.76-21.95-1.42-.96-3.04,1.19-1.82,2.36,1.31,1.25,2.62,2.49,3.92,3.74,1.4,1.33,3.49-.75,2.12-2.12-1.99-1.99-3.99-3.99-5.98-5.98-1.37-1.37-3.49.75-2.12,2.12h0Z"/>
      <path class="cls-27" d="m1534.31,3536.91c2.53,1.92,5.05,3.83,7.58,5.75,1.35,1.03,3.08-1.23,1.82-2.36-2.85-2.54-5.69-5.09-8.54-7.63l-1.82,2.36c5.91,3.09,10.07,8.37,14.39,13.29,2.23,2.54,4.53,5.01,7.15,7.15,3.23,2.64,6.63,5.08,9.95,7.61,1.54,1.17,3.03-1.44,1.51-2.59-3.36-2.55-6.85-5-10.07-7.74-2.53-2.15-4.75-4.63-6.93-7.13-4.3-4.94-8.58-10.1-14.49-13.18-1.44-.75-3.15,1.17-1.82,2.36,2.85,2.54,5.69,5.09,8.54,7.63l1.82-2.36c-2.53-1.92-5.05-3.83-7.58-5.75-1.54-1.17-3.03,1.44-1.51,2.59h0Z"/>
      <path class="cls-27" d="m1559.09,3559.04c4.19,3.85,8.93,7.06,14.09,9.48,1.48.69,3.09-1.08,1.82-2.36-3.78-3.79-8.32-6.64-13.35-8.45-1.23-.44-2.37,1.14-1.69,2.2,1.89,2.95,4.43,5.37,7.49,7.09,1.47.82,3.06-1.14,1.82-2.36-2.01-1.96-4.34-3.42-6.95-4.45-1.19-.47-2.43,1.18-1.69,2.2,3.86,5.38,8.98,9.73,14.98,12.56,1.45.68,3.14-1.11,1.82-2.36-3.66-3.45-7.86-6.12-12.49-8.05-1.67-.7-2.44,1.83-1.16,2.74,3.63,2.58,7.5,4.76,11.58,6.54,1.19.52,3.06-.69,2.05-2.05-1.7-2.3-3.74-4.22-6.18-5.73-1.44-.89-3.06,1.18-1.82,2.36,1.93,1.84,4.09,3.39,6.47,4.6,1.43.72,3.21-1.21,1.82-2.36-3-2.47-6.2-4.66-9.62-6.52-1.48-.8-3.05,1.12-1.82,2.36,3.45,3.46,7.16,6.63,11.08,9.54,1.44,1.07,2.88-1.15,1.82-2.36-2.05-2.32-4.34-4.37-6.85-6.19l-1.51,2.59c1.96,1.09,3.77,2.35,5.45,3.83,1.44,1.27,3.46-.71,2.12-2.12-1.97-2.09-3.95-4.18-5.92-6.27l-2.12,2.12c3.36,3.38,7,6.45,10.87,9.22,1.38.99,3.09-1.23,1.82-2.36l-7.25-6.39c-1.44-1.27-3.45.7-2.12,2.12,3.22,3.45,6.44,6.89,9.65,10.34,1.14,1.22,3.38-.43,2.36-1.82-3.12-4.21-6.59-8.12-10.44-11.68-1.43-1.32-3.39.67-2.12,2.12,3.41,3.89,7.16,7.45,11.24,10.64,1.48,1.16,3.53-.72,2.12-2.12-3.62-3.61-7.73-6.71-12.21-9.18-1.23-.68-2.96.76-2.05,2.05,2.89,4.12,6.3,7.81,10.21,10.97,1.23.99,3.34-.27,2.36-1.82-2.96-4.65-6.97-8.5-11.75-11.24-1.45-.83-3.08,1.17-1.82,2.36,3.37,3.17,7.22,5.78,11.44,7.69,1.21.55,3.02-.69,2.05-2.05-1.76-2.47-3.76-4.72-6.05-6.71-1.48-1.29-3.31.63-2.12,2.12,2.35,2.95,5.14,5.48,8.28,7.56,1.44.96,2.99-1.16,1.82-2.36-1.36-1.38-2.72-2.77-4.08-4.15-1.16-1.18-3.41.43-2.36,1.82,2.58,3.38,5.56,6.31,9,8.81,1.37,1,3.12-1.26,1.82-2.36-2.66-2.22-5.31-4.44-7.97-6.66-1.22-1.02-3.35.29-2.36,1.82,2.98,4.59,6.63,8.7,10.88,12.15,1.47,1.19,3.53-.74,2.12-2.12-3.52-3.45-7.37-6.54-11.49-9.23-1.21-.79-2.95.83-2.05,2.05,2.48,3.4,5.7,5.9,9.59,7.5,1.26.52,2.3-1.17,1.69-2.2-3.06-5.23-7.21-9.68-12.18-13.15-1.41-.98-3.02,1.19-1.82,2.36,1.95,1.9,3.91,3.8,5.86,5.71,1.4,1.36,3.38-.68,2.12-2.12-2.28-2.61-4.56-5.21-6.84-7.82l-2.12,2.12c2.58,2.09,5.17,4.17,7.75,6.26,1.26,1.02,3.25-.24,2.36-1.82-1.1-1.92-2.6-3.49-4.45-4.71-1.51-.99-2.85,1.12-1.82,2.36,3.09,3.68,6.45,7.12,10.05,10.3,1.21,1.06,3.36-.33,2.36-1.82-1.54-2.28-3.36-4.33-5.48-6.08-1.48-1.22-3.41.65-2.12,2.12,3.03,3.47,5.92,7.06,8.65,10.78,1.14,1.55,3.42.25,2.59-1.51-1.07-2.29-2.35-4.45-3.83-6.5-1.13-1.57-3.41-.25-2.59,1.51.77,1.67,1.78,3.17,2.98,4.56,1.1,1.28,3.32-.41,2.36-1.82-1.01-1.49-2.03-2.97-3.04-4.46s-3.03-.52-2.74,1.16c.59,3.48,1.46,6.89,2.6,10.22l2.89-.8c-1.07-2.68-2.31-5.27-3.75-7.77l-2.59,1.51c1.55,2.56,3.3,4.97,5.24,7.24.94,1.1,3.08-.07,2.51-1.46-1.34-3.26-2.67-6.52-4.01-9.78l-2.51,1.46c1.57,2.01,3.13,4.02,4.7,6.03,1.05,1.35,3.23-.39,2.36-1.82-1.54-2.51-3.32-4.86-5.33-7.01-1.33-1.43-3.35.66-2.12,2.12,1.91,2.27,3.83,4.55,5.74,6.82,1.13,1.34,3.14-.37,2.36-1.82-1.03-1.9-2.32-3.62-3.82-5.17-1.22-1.26-3.12.34-2.36,1.82,1.36,2.63,3.11,5.02,5.19,7.12,1.22,1.23,3.15-.33,2.36-1.82-1.06-1.97-2.11-3.95-3.17-5.92-.92-1.72-3.4-.21-2.59,1.51.99,2.12,2.17,4.13,3.54,6.04.92,1.28,3.32.58,2.74-1.16-.46-1.39-.92-2.78-1.39-4.17-.61-1.83-3.32-1.09-2.89.8.35,1.53.43,3.1.19,4.66l2.74-.36c-.56-.85-.76-1.63-.7-2.64l-2.95.4c.34,1.67.68,3.35,1.01,5.02.3,1.5,2.51,1.36,2.89,0,.53-1.85,1.05-3.7,1.58-5.54l-2.95-.4c0,1.72.02,3.45.02,5.17h3c-.1-1.62-.2-3.25-.31-4.87h-3l.57,6.76,2.95-.4-2.15-6.78c-.58-1.83-3.42-1.07-2.89.8.63,2.2,1.25,4.4,1.88,6.6.44,1.57,3.12,1.34,2.95-.4l-.69-7.01-2.95.4c.5,3.24,1.43,6.33,2.72,9.34.72,1.69,2.98.37,2.74-1.16-.43-2.71-.85-5.42-1.28-8.12l-2.89.8c.38,2.28.77,4.55,1.15,6.83.28,1.68,3,1.27,2.95-.4l-.17-5.88-2.95.4c1.02,2.54,1.71,5.19,1.97,7.92.19,1.96,2.75,1.9,3,0,.29-2.19.32-4.38.09-6.58l-2.95.4.93,6.78,2.89-.8c-.76-2.85-1.69-5.64-2.79-8.38-.7-1.76-3.32-1.13-2.89.8.62,2.78,1.65,5.43,3.06,7.91.88,1.56,3.03.45,2.74-1.16-.5-2.74-1.33-5.35-2.45-7.9-.59-1.35-2.92-.68-2.8.76.32,3.58,1.35,6.98,3.14,10.1.69,1.2,2.98.78,2.8-.76-.36-2.98-.97-5.88-1.9-8.74-.6-1.82-3.37-1.09-2.89.8.86,3.37,1.92,6.69,3.17,9.93.57,1.49,2.98,1.41,2.95-.4-.05-2.96-.45-5.89-1.2-8.75l-2.89.8c.95,3.36,1.89,6.71,2.84,10.07.44,1.57,3.12,1.34,2.95-.4-.33-3.25-.91-6.45-1.8-9.6-.53-1.86-3.33-1.08-2.89.8l1.92,8.28,2.74-1.16c-1.41-3.21-2.52-6.53-3.37-9.93l-2.89.8c.75,2.75,1.51,5.51,2.26,8.26l2.89-.8-1.85-6.25-2.74,1.16,4.26,8.76c.64,1.32,2.91.71,2.8-.76-.24-3.09-1.09-6-2.58-8.71-.69-1.25-2.93-.75-2.8.76.29,3.29.91,6.51,1.94,9.65.49,1.51,3.16,1.37,2.95-.4-.41-3.33-1.31-6.47-2.77-9.49-.85-1.77-3.33-.22-2.59,1.51,1.28,3.01,2.56,6.01,3.85,9.02.59,1.38,2.89.67,2.8-.76-.2-3.06-.57-6.1-1.1-9.12-.29-1.66-3.05-1.28-2.95.4.21,3.36.93,6.62,2.24,9.72.73,1.73,3.35,1.14,2.89-.8-.83-3.56-1.92-7.04-3.27-10.44-.69-1.75-3.42-1.11-2.89.8,1.04,3.77,2.42,7.43,4.11,10.96.68,1.42,2.74.62,2.8-.76.09-2.45-.21-4.88-.9-7.23-.47-1.63-2.91-1.3-2.95.4-.07,3.17.67,6.22,2.13,9.03.68,1.31,2.87.72,2.8-.76-.15-2.92-.61-5.8-1.42-8.62-.54-1.89-3.2-1.07-2.89.8.45,2.77,1.19,5.45,2.22,8.06l2.89-.8c-.72-1.81-1.24-3.66-1.57-5.58l-2.89.8,1.45,4.94c.54,1.85,3.34,1.08,2.89-.8-.77-3.22-1.9-6.32-3.35-9.3-.75-1.54-3.22-.46-2.74,1.16.95,3.2,1.9,6.41,2.85,9.61.46,1.55,3.16,1.34,2.95-.4-.33-2.66-.88-5.25-1.72-7.79-.61-1.86-3.23-1.09-2.89.8.61,3.45,1.84,6.75,3.62,9.77.91,1.55,3.01.45,2.74-1.16-.44-2.62-.87-5.23-1.31-7.85l-2.89.8c.67,2.52,1.34,5.04,2.01,7.57.5,1.89,3.24,1.08,2.89-.8-.48-2.59-1.14-5.13-1.99-7.62-.62-1.81-3.4-1.08-2.89.8.78,2.87,1.72,5.69,2.83,8.46.28.7.85,1.18,1.65,1.07.66-.09,1.4-.73,1.3-1.47-.48-3.67-1.51-7.15-3.15-10.48-.78-1.59-3.09-.44-2.74,1.16.57,2.61,1.15,5.21,1.72,7.82.42,1.91,3.2,1.07,2.89-.8-.46-2.79-1.49-5.43-3-7.81-1.03-1.62-3.55-.17-2.59,1.51,2,3.5,3.99,7.01,5.99,10.51.68,1.2,3,.78,2.8-.76-.53-4.04-2.03-7.66-4.53-10.88-.96-1.24-2.88.12-2.51,1.46.94,3.38,2.18,6.66,3.7,9.83.76,1.59,3.11.44,2.74-1.16-.65-2.79-1.29-5.59-1.94-8.38-.44-1.9-3.24-1.08-2.89.8.64,3.42,1.57,6.76,2.8,10.01.55,1.44,3.15,1.42,2.95-.4-.33-2.99-.91-5.92-1.78-8.79-.56-1.84-3.36-1.08-2.89.8.96,3.9,2.25,7.68,3.82,11.38.65,1.55,3.37.43,2.74-1.16-1.13-2.86-2.25-5.71-3.38-8.57l-2.74,1.16c1.26,2.88,2.8,5.61,4.61,8.18.77,1.1,2.93.86,2.8-.76-.3-3.7-1.24-7.23-2.79-10.6-.68-1.48-2.69-.57-2.8.76-.26,3.17.32,6.22,1.57,9.13.69,1.6,3.13.43,2.74-1.16-.81-3.26-2-6.4-3.55-9.38-.78-1.51-3.24-.47-2.74,1.16.99,3.23,2.26,6.36,3.81,9.36.8,1.55,3.12.45,2.74-1.16-.81-3.41-2.13-6.68-3.89-9.71-.84-1.44-3.28-.49-2.74,1.16,1.26,3.86,2.88,7.6,4.83,11.16.75,1.37,2.72.66,2.8-.76.17-3-.47-5.89-1.78-8.58-.78-1.6-3.07-.43-2.74,1.16.69,3.34,1.81,6.55,3.31,9.61.76,1.55,3.18.45,2.74-1.16-.8-2.95-1.59-5.89-2.39-8.84-.51-1.89-3.25-1.08-2.89.8.6,3.18,1.2,6.36,1.79,9.53.31,1.66,3.01,1.28,2.95-.4-.12-3.13-.51-6.25-1.15-9.32-.36-1.76-2.81-1.18-2.95.4-.33,3.75.56,7.49,2.5,10.71.88,1.46,3.17.5,2.74-1.16-.93-3.64-1.86-7.27-2.8-10.91l-2.89.8c.75,2,1.5,4.01,2.26,6.01l2.74-1.16c-1.16-2.25-2.31-4.5-3.47-6.76-.89-1.73-3.41-.21-2.59,1.51,1.43,2.99,3.76,5.44,6.65,7.05,1.1.61,2.61-.41,2.2-1.69-.66-2.09-1.72-3.94-3.17-5.58-1.2-1.36-3.03.37-2.36,1.82.97,2.1,2.32,3.97,3.97,5.59,1.21,1.19,3.21-.33,2.36-1.82-1.1-1.91-2.48-3.63-4.12-5.1-1.18-1.06-2.73,0-2.51,1.46.75,4.92,3.28,9.47,7.03,12.74,1.19,1.04,3.46-.39,2.36-1.82-1.59-2.06-3.18-4.12-4.77-6.17l-2.36,1.82c2.2,2.17,4.41,4.34,6.61,6.5,1.18,1.16,3.32-.36,2.36-1.82-2.11-3.2-4.21-6.39-6.32-9.59-.88-1.34-3.36-.53-2.74,1.16,1.33,3.61,3.47,6.8,6.4,9.31,1.27,1.09,3.2-.27,2.36-1.82-1.54-2.83-3.3-5.53-5.26-8.09-1.14-1.49-3.7-.12-2.59,1.51,1.24,1.82,2.62,3.53,4.17,5.09,1.25,1.26,3.07-.33,2.36-1.82-1.24-2.56-2.84-4.9-4.75-7.01-1.32-1.47-3.28.64-2.12,2.12,2.43,3.1,4.86,6.21,7.29,9.31l2.12-2.12c-1.86-2.2-3.73-4.41-5.59-6.61l-2.12,2.12c3.7,3.68,7.4,7.35,11.1,11.03,1.17,1.16,3.38-.39,2.36-1.82-2.84-3.97-6.05-7.64-9.64-10.95-1.41-1.31-3.5.75-2.12,2.12,3.69,3.66,7.37,7.32,11.06,10.98,1.39,1.38,3.37-.68,2.12-2.12-2.39-2.75-4.91-5.38-7.56-7.88-1.41-1.32-3.46.73-2.12,2.12,3.2,3.33,6.4,6.65,9.6,9.98,1.25,1.3,3.03-.35,2.36-1.82-2.07-4.54-6.63-7.51-11.57-7.82-1.09-.07-1.93,1.34-1.3,2.26,2.18,3.15,4.84,5.83,7.98,8.04,1.42,1,3-1.18,1.82-2.36-3.1-3.09-6.57-5.79-10.33-8.02-1.21-.71-2.99.8-2.05,2.05,3.61,4.8,7.8,9.03,12.56,12.7l1.51-2.59c-4.53-2.52-9.05-5.04-13.58-7.56-1.24-.69-2.94.76-2.05,2.05,3.51,5.11,7.82,9.53,12.84,13.17,1.45,1.05,2.88-1.15,1.82-2.36-2.89-3.3-6.22-6.15-9.9-8.54-1.66-1.08-3.01,1.45-1.51,2.59,5.33,4.06,10.91,7.79,16.7,11.16,1.48.86,3.01-1.13,1.82-2.36-3.43-3.5-7.71-6.02-12.44-7.32-1.39-.38-2.6,1.48-1.46,2.51,6.77,6.06,14.16,11.38,22.06,15.86,1.71.97,3.05-1.48,1.51-2.59-1.96-1.42-3.92-2.85-5.88-4.27l-1.16,2.74c2.02.81,4.04,1.63,6.05,2.44,1.2.49,2.4-1.17,1.69-2.2-2.82-4.09-6.79-7.1-11.5-8.68-1.67-.56-2.53,1.85-1.16,2.74,5.06,3.28,10.12,6.56,15.18,9.84,1.44.93,3.03-1.17,1.82-2.36-3.05-2.98-6.78-5.11-10.9-6.18-1.35-.35-2.67,1.51-1.46,2.51,5.23,4.3,10.74,8.24,16.52,11.77l1.51-2.59c-1.3-.72-2.6-1.45-3.91-2.17l-1.51,2.59c3.19,1.64,6.37,3.27,9.56,4.91,1.71.88,3.23-1.71,1.51-2.59-3.19-1.64-6.37-3.27-9.56-4.91-1.71-.88-3.21,1.65-1.51,2.59,1.3.72,2.6,1.45,3.91,2.17,1.69.94,3.16-1.58,1.51-2.59-5.56-3.39-10.88-7.16-15.91-11.3l-1.46,2.51c3.64.95,6.89,2.78,9.58,5.41l1.82-2.36c-5.06-3.28-10.12-6.56-15.18-9.84l-1.16,2.74c3.93,1.32,7.36,3.88,9.71,7.3l1.69-2.2c-2.02-.81-4.04-1.63-6.05-2.44-1.69-.68-2.42,1.82-1.16,2.74,1.96,1.42,3.92,2.85,5.88,4.27l1.51-2.59c-7.68-4.35-14.87-9.5-21.45-15.39l-1.46,2.51c4.24,1.17,8.03,3.41,11.12,6.55l1.82-2.36c-5.79-3.37-11.37-7.1-16.7-11.16l-1.51,2.59c3.47,2.25,6.57,4.96,9.29,8.07l1.82-2.36c-4.58-3.32-8.57-7.43-11.77-12.1l-2.05,2.05c4.53,2.52,9.05,5.04,13.58,7.56,1.74.97,3-1.45,1.51-2.59-4.32-3.33-8.21-7.26-11.49-11.62l-2.05,2.05c3.56,2.11,6.8,4.62,9.73,7.55l1.82-2.36c-2.69-1.89-5.03-4.25-6.9-6.96l-1.3,2.26c3.95.25,7.35,2.77,8.98,6.33l2.36-1.82c-3.2-3.33-6.4-6.65-9.6-9.98l-2.12,2.12c2.65,2.5,5.17,5.13,7.56,7.88l2.12-2.12c-3.69-3.66-7.37-7.32-11.06-10.98l-2.12,2.12c3.4,3.14,6.48,6.59,9.17,10.35l2.36-1.82c-3.7-3.68-7.4-7.35-11.1-11.03-1.39-1.38-3.35.67-2.12,2.12,1.86,2.2,3.73,4.41,5.59,6.61,1.26,1.5,3.29-.63,2.12-2.12-2.43-3.1-4.86-6.21-7.29-9.31l-2.12,2.12c1.74,1.93,3.15,4.07,4.28,6.41l2.36-1.82c-1.37-1.39-2.61-2.87-3.7-4.49l-2.59,1.51c1.96,2.56,3.72,5.26,5.26,8.09l2.36-1.82c-2.52-2.16-4.47-4.86-5.63-7.98l-2.74,1.16c2.11,3.2,4.21,6.39,6.32,9.59l2.36-1.82c-2.2-2.17-4.41-4.34-6.61-6.5-1.17-1.15-3.43.43-2.36,1.82,1.59,2.06,3.18,4.12,4.77,6.17l2.36-1.82c-3.41-2.98-5.57-6.94-6.26-11.42l-2.51,1.46c1.47,1.31,2.67,2.78,3.65,4.49l2.36-1.82c-1.49-1.46-2.63-3.1-3.5-4.99l-2.36,1.82c1.1,1.25,1.9,2.67,2.4,4.26l2.2-1.69c-2.48-1.39-4.35-3.42-5.57-5.98l-2.59,1.51c1.16,2.25,2.31,4.5,3.47,6.76.76,1.49,3.35.45,2.74-1.16-.75-2-1.5-4.01-2.26-6.01-.67-1.78-3.38-1.11-2.89.8.93,3.64,1.86,7.27,2.8,10.91l2.74-1.16c-1.69-2.81-2.38-5.94-2.09-9.2l-2.95.4c.58,2.81.92,5.65,1.04,8.52l2.95-.4c-.6-3.18-1.2-6.36-1.79-9.53l-2.89.8c.8,2.95,1.59,5.89,2.39,8.84l2.74-1.16c-1.38-2.83-2.37-5.81-3-8.9l-2.74,1.16c1.08,2.22,1.51,4.6,1.37,7.06l2.8-.76c-1.84-3.34-3.35-6.82-4.53-10.44l-2.74,1.16c1.64,2.82,2.83,5.82,3.59,8.99l2.74-1.16c-1.43-2.78-2.59-5.66-3.51-8.64l-2.74,1.16c1.43,2.76,2.5,5.64,3.25,8.66l2.74-1.16c-1.04-2.41-1.37-5.01-1.16-7.61l-2.8.76c1.32,2.86,2.13,5.95,2.38,9.09l2.8-.76c-1.81-2.57-3.35-5.3-4.61-8.18-.67-1.54-3.37-.43-2.74,1.16,1.13,2.86,2.25,5.71,3.38,8.57l2.74-1.16c-1.46-3.45-2.62-7.02-3.51-10.66l-2.89.8c.8,2.61,1.37,5.28,1.68,8l2.95-.4c-1.23-3.25-2.17-6.59-2.8-10.01l-2.89.8c.65,2.79,1.29,5.59,1.94,8.38l2.74-1.16c-1.41-2.93-2.53-5.98-3.4-9.11l-2.51,1.46c1.95,2.52,3.23,5.6,3.65,8.76l2.8-.76c-2-3.5-3.99-7.01-5.99-10.51l-2.59,1.51c1.39,2.19,2.28,4.54,2.7,7.1l2.89-.8c-.57-2.61-1.15-5.21-1.72-7.82l-2.74,1.16c1.39,2.81,2.33,5.85,2.74,8.97l2.95-.4c-1.11-2.76-2.05-5.58-2.83-8.46l-2.89.8c.85,2.49,1.51,5.03,1.99,7.62l2.89-.8c-.67-2.52-1.34-5.04-2.01-7.57-.5-1.9-3.2-1.07-2.89.8.44,2.62.87,5.23,1.31,7.85l2.74-1.16c-1.65-2.82-2.75-5.84-3.31-9.06l-2.89.8c.75,2.28,1.32,4.61,1.61,7l2.95-.4c-.95-3.2-1.9-6.41-2.85-9.61l-2.74,1.16c1.34,2.74,2.34,5.61,3.05,8.58l2.89-.8-1.45-4.94c-.55-1.89-3.21-1.07-2.89.8s.85,3.78,1.57,5.58,3.6,1,2.89-.8c-1.03-2.61-1.77-5.29-2.22-8.06l-2.89.8c.73,2.56,1.18,5.16,1.31,7.82l2.8-.76c-1.22-2.34-1.78-4.88-1.72-7.51l-2.95.4c.61,2.12.87,4.23.79,6.44l2.8-.76c-1.57-3.3-2.83-6.72-3.8-10.24l-2.89.8c1.34,3.4,2.43,6.88,3.27,10.44l2.89-.8c-1.2-2.85-1.94-5.83-2.13-8.92l-2.95.4c.48,2.76.81,5.53.99,8.32l2.8-.76c-1.28-3.01-2.56-6.01-3.85-9.02l-2.59,1.51c1.21,2.51,2.03,5.21,2.36,7.97l2.95-.4c-.94-2.88-1.57-5.83-1.83-8.85l-2.8.76c1.23,2.23,1.98,4.66,2.17,7.2l2.8-.76-4.26-8.76c-.75-1.54-3.22-.46-2.74,1.16l1.85,6.25c.55,1.85,3.4,1.07,2.89-.8-.75-2.75-1.51-5.51-2.26-8.26-.51-1.86-3.36-1.08-2.89.8.91,3.66,2.15,7.2,3.67,10.65.71,1.61,3.11.43,2.74-1.16l-1.92-8.28-2.89.8c.81,2.89,1.39,5.82,1.7,8.8l2.95-.4c-.95-3.36-1.89-6.71-2.84-10.07-.52-1.86-3.38-1.08-2.89.8.68,2.61,1.04,5.26,1.09,7.96l2.95-.4c-1.26-3.25-2.31-6.56-3.17-9.93l-2.89.8c.85,2.58,1.47,5.24,1.8,7.94l2.8-.76c-1.52-2.65-2.46-5.55-2.73-8.59l-2.8.76c1.01,2.3,1.71,4.72,2.15,7.19l2.74-1.16c-1.28-2.26-2.19-4.66-2.76-7.2l-2.89.8c1.1,2.74,2.03,5.53,2.79,8.38.52,1.92,3.15,1.05,2.89-.8l-.93-6.78c-.23-1.66-3.12-1.28-2.95.4.23,2.2.2,4.38-.09,6.58h3c-.29-3-.96-5.91-2.08-8.72-.58-1.46-3-1.43-2.95.4l.17,5.88,2.95-.4c-.38-2.28-.77-4.55-1.15-6.83-.32-1.91-3.19-1.09-2.89.8.43,2.71.85,5.42,1.28,8.12l2.74-1.16c-1.18-2.76-1.96-5.67-2.42-8.63-.25-1.66-3.11-1.28-2.95.4l.69,7.01,2.95-.4c-.63-2.2-1.25-4.4-1.88-6.6l-2.89.8c.72,2.26,1.44,4.52,2.15,6.78.49,1.53,3.1,1.36,2.95-.4l-.57-6.76c-.16-1.9-3.12-1.94-3,0,.1,1.62.2,3.25.31,4.87.12,1.91,3.01,1.95,3,0,0-1.72-.02-3.45-.02-5.17s-2.48-2.04-2.95-.4c-.53,1.85-1.05,3.7-1.58,5.54h2.89c-.34-1.67-.68-3.35-1.01-5.02s-2.85-1.21-2.95.4c-.09,1.49.29,2.91,1.11,4.16.63.97,2.53,1.01,2.74-.36.33-2.12.29-4.16-.19-6.26l-2.89.8c.46,1.39.92,2.78,1.39,4.17l2.74-1.16c-1.37-1.9-2.55-3.91-3.54-6.04l-2.59,1.51c1.06,1.97,2.11,3.95,3.17,5.92l2.36-1.82c-1.91-1.93-3.48-4.1-4.72-6.51l-2.36,1.82c1.34,1.38,2.44,2.88,3.35,4.57l2.36-1.82c-1.91-2.27-3.83-4.55-5.74-6.82l-2.12,2.12c1.84,1.98,3.45,4.1,4.86,6.41l2.36-1.82c-1.57-2.01-3.13-4.02-4.7-6.03-.9-1.16-3.06.1-2.51,1.46,1.34,3.26,2.67,6.52,4.01,9.78l2.51-1.46c-1.78-2.08-3.36-4.29-4.77-6.63-1-1.65-3.56-.17-2.59,1.51,1.31,2.27,2.47,4.62,3.44,7.05.7,1.75,3.53,1.06,2.89-.8-1.14-3.34-2.01-6.75-2.6-10.22l-2.74,1.16c1.01,1.49,2.03,2.97,3.04,4.46l2.36-1.82c-1.03-1.2-1.85-2.52-2.51-3.96l-2.59,1.51c1.48,2.05,2.76,4.21,3.83,6.5l2.59-1.51c-2.88-3.92-5.92-7.72-9.12-11.39l-2.12,2.12c1.93,1.59,3.61,3.4,5.01,5.47l2.36-1.82c-3.61-3.18-6.96-6.62-10.05-10.3l-1.82,2.36c1.43.94,2.53,2.15,3.38,3.63l2.36-1.82c-2.58-2.09-5.17-4.17-7.75-6.26-1.49-1.2-3.41.64-2.12,2.12,2.28,2.61,4.56,5.21,6.84,7.82l2.12-2.12c-1.95-1.9-3.91-3.8-5.86-5.71l-1.82,2.36c4.54,3.17,8.31,7.29,11.1,12.07l1.69-2.2c-3.09-1.27-5.82-3.42-7.79-6.12l-2.05,2.05c3.92,2.56,7.54,5.49,10.88,8.76l2.12-2.12c-4.05-3.29-7.57-7.16-10.41-11.55l-2.36,1.82c2.66,2.22,5.31,4.44,7.97,6.66l1.82-2.36c-2.99-2.18-5.68-4.8-7.92-7.74l-2.36,1.82c1.36,1.38,2.72,2.77,4.08,4.15l1.82-2.36c-2.93-1.95-5.48-4.34-7.67-7.09l-2.12,2.12c2.09,1.82,3.97,3.85,5.58,6.1l2.05-2.05c-3.99-1.81-7.63-4.21-10.83-7.22l-1.82,2.36c4.34,2.49,7.99,5.95,10.67,10.17l2.36-1.82c-3.71-2.99-7-6.46-9.75-10.36l-2.05,2.05c4.27,2.36,8.15,5.27,11.6,8.71l2.12-2.12c-4.07-3.19-7.83-6.74-11.24-10.64l-2.12,2.12c3.66,3.38,7.01,7.07,9.97,11.07l2.36-1.82c-3.22-3.45-6.44-6.89-9.65-10.34l-2.12,2.12,7.25,6.39,1.82-2.36c-3.66-2.63-7.08-5.56-10.26-8.76-1.37-1.37-3.45.72-2.12,2.12,1.97,2.09,3.95,4.18,5.92,6.27l2.12-2.12c-1.87-1.65-3.88-3.09-6.06-4.3-1.72-.96-3.05,1.48-1.51,2.59,2.29,1.67,4.37,3.6,6.24,5.72l1.82-2.36c-3.71-2.76-7.2-5.8-10.47-9.07l-1.82,2.36c3.19,1.73,6.21,3.74,9.01,6.05l1.82-2.36c-2.16-1.1-4.11-2.46-5.86-4.13l-1.82,2.36c1.98,1.22,3.72,2.78,5.1,4.65l2.05-2.05c-4.08-1.78-7.95-3.96-11.58-6.54l-1.16,2.74c4.14,1.72,7.91,4.21,11.17,7.28l1.82-2.36c-5.53-2.6-10.34-6.51-13.9-11.48l-1.69,2.2c2.12.83,4,2.1,5.62,3.68l1.82-2.36c-2.62-1.46-4.79-3.48-6.41-6.01l-1.69,2.2c4.54,1.63,8.62,4.26,12.03,7.68l1.82-2.36c-4.93-2.31-9.47-5.32-13.48-9.01-1.42-1.3-3.55.81-2.12,2.12h0Z"/>
      <path class="cls-27" d="m1633.26,3616.73c2.05,1.31,4.11,2.63,6.16,3.94,1.5.96,2.89-1.12,1.82-2.36-2.62-3-5.67-5.57-9.06-7.65-1.43-.88-3.1,1.21-1.82,2.36,2.04,1.82,4.23,3.44,6.57,4.84,1.71,1.02,3-1.45,1.51-2.59-2.53-1.94-5.33-3.4-8.35-4.42-1.49-.5-2.42,1.47-1.46,2.51,2.88,3.1,5.77,6.2,8.65,9.29,2.37,2.54,4.76,5.62,8.2,6.72.79.25,1.54.4,2.23-.19.57-.48.85-1.24.85-1.97,0-1.58-1.13-2.85-2.19-3.89-2.54-2.51-5.65-4.33-9.03-5.45-1.68-.55-2.52,1.84-1.16,2.74,3.52,2.33,7.04,4.66,10.56,7,1.64,1.09,3.02-1.46,1.51-2.59-3.9-2.93-8.09-5.4-12.54-7.4-1.43-.64-3.19,1.13-1.82,2.36,3.58,3.19,7.54,5.9,11.83,8.05,1.23.61,2.97-.72,2.05-2.05-2.34-3.4-5.34-6.21-8.93-8.27l-1.51,2.59c3.24,1.63,6.27,3.62,9.02,5.98l1.82-2.36c-3.87-1.97-7.74-3.95-11.6-5.92-1.73-.88-3.12,1.51-1.51,2.59,3.28,2.2,6.22,4.83,8.82,7.8l1.82-2.36c-4.23-2.16-8.47-4.32-12.7-6.48-1.42-.72-3.23,1.24-1.82,2.36,6.58,5.18,14.03,8.94,21.5,12.63,1.72.85,3.16-1.54,1.51-2.59-4.61-2.94-9.42-5.54-14.41-7.78-1.73-.78-3.26,1.71-1.51,2.59,5.95,2.98,11.82,6.1,17.61,9.36,1.46.82,3.08-1.15,1.82-2.36-3.74-3.57-7.71-6.89-11.86-9.97-1.38-1.02-3.04,1.2-1.82,2.36,4.06,3.81,8.54,7.16,13.35,9.95,1.48.86,3.01-1.13,1.82-2.36-3.25-3.35-6.79-6.38-10.57-9.11-1.39-1.01-3.03,1.2-1.82,2.36,3.13,2.98,6.25,5.96,9.38,8.94,1.4,1.34,3.43-.7,2.12-2.12-3.18-3.46-7.05-6.22-11.38-8.06-1.41-.6-3.25,1.15-1.82,2.36,6.49,5.47,13.15,10.74,19.96,15.81,1.39,1.03,2.99-1.18,1.82-2.36-3.56-3.55-7.82-6.22-12.54-7.92-1.37-.49-2.63,1.58-1.46,2.51,3.24,2.59,6.72,4.8,10.49,6.55,1.5.7,3.05-1.06,1.82-2.36-4.28-4.52-9.25-8.35-14.71-11.34-1.45-.79-3.12,1.17-1.82,2.36,4.58,4.15,9.67,7.7,15.15,10.55,1.2.62,3.03-.76,2.05-2.05-2.93-3.86-6.44-7.14-10.53-9.76-1.42-.91-3.09,1.21-1.82,2.36,5.63,5.05,11.52,9.81,17.63,14.27l1.51-2.59-10.35-7.55-1.51,2.59c4.9,3.57,9.81,7.13,14.71,10.7,1.38,1,3.07-1.22,1.82-2.36-4.32-3.93-9-7.44-14-10.46-1.48-.89-2.99,1.14-1.82,2.36,3.76,3.91,7.93,7.39,12.44,10.42,1.51,1.01,2.83-1.13,1.82-2.36-4.03-4.87-8.75-9.08-14.02-12.57-1.43-.95-3.04,1.18-1.82,2.36l9.88,9.49,2.12-2.12c-4.48-4.31-9.4-8.14-14.68-11.44-1.26-.79-2.85.79-2.05,2.05,5.09,8.11,12.12,14.88,20.44,19.64,1.2.69,3-.79,2.05-2.05-4.37-5.79-9.88-10.59-16.28-14.02-1.46-.78-3.1,1.15-1.82,2.36,6.85,6.44,14.55,11.94,22.88,16.29,1.71.89,3.2-1.63,1.51-2.59-4.85-2.78-9.69-5.56-14.54-8.33-1.57-.9-2.84,1.08-1.82,2.36,4.92,6.12,10.56,11.55,16.79,16.31,1.47,1.12,2.78-1.15,1.82-2.36-3.56-4.47-7.89-8.27-12.75-11.27-1.47-.91-2.98,1.14-1.82,2.36,5.89,6.14,12.87,11.19,20.56,14.84,1.55.74,2.94-1.03,1.82-2.36-4.65-5.5-10.38-10.04-16.78-13.33-1.43-.74-3.19,1.2-1.82,2.36,7.12,6.03,14.49,11.77,22.09,17.2,1.25.89,2.81-.83,2.05-2.05-4.12-6.69-9.93-12.22-16.82-15.98-1.47-.8-3.06,1.13-1.82,2.36,5.13,5.08,10.7,9.69,16.62,13.82,1.49,1.04,2.83-1.14,1.82-2.36-3.57-4.29-7.76-7.99-12.42-11.06-1.51-1-2.84,1.12-1.82,2.36,8.02,9.65,17.83,17.74,28.82,23.8,1.72.95,3.08-1.49,1.51-2.59-5.77-4.05-11.93-7.5-18.39-10.32-1.41-.62-3.25,1.16-1.82,2.36,8.1,6.75,16.58,13.04,25.4,18.83,1.64,1.07,3.06-1.48,1.51-2.59-7.79-5.6-16.03-10.54-24.65-14.77-1.72-.84-3.23,1.66-1.51,2.59,11.76,6.36,23.61,12.54,35.56,18.52,1.73.87,3.11-1.5,1.51-2.59-5.52-3.75-11.28-7.12-17.24-10.1-1.72-.86-3.24,1.73-1.51,2.59,5.97,2.98,11.73,6.35,17.24,10.1l1.51-2.59c-11.95-5.99-23.81-12.16-35.56-18.52l-1.51,2.59c8.61,4.23,16.86,9.17,24.65,14.77l1.51-2.59c-8.6-5.65-16.88-11.77-24.79-18.36l-1.82,2.36c6.46,2.82,12.61,6.28,18.39,10.32l1.51-2.59c-10.78-5.94-20.34-13.86-28.21-23.33l-1.82,2.36c4.45,2.93,8.4,6.5,11.81,10.59l1.82-2.36c-5.72-3.98-11.07-8.45-16.02-13.35l-1.82,2.36c6.46,3.52,11.88,8.64,15.75,14.9l2.05-2.05c-7.39-5.28-14.55-10.86-21.48-16.73l-1.82,2.36c6.21,3.19,11.67,7.53,16.18,12.86l1.82-2.36c-7.48-3.55-14.22-8.4-19.95-14.38l-1.82,2.36c4.66,2.87,8.74,6.52,12.15,10.8l1.82-2.36c-6.02-4.6-11.44-9.95-16.19-15.84l-1.82,2.36c4.85,2.78,9.69,5.56,14.54,8.33l1.51-2.59c-8.12-4.24-15.6-9.55-22.27-15.83l-1.82,2.36c5.93,3.18,11.15,7.58,15.2,12.95l2.05-2.05c-7.87-4.51-14.54-10.88-19.36-18.56l-2.05,2.05c5.06,3.17,9.76,6.83,14.07,10.97,1.39,1.34,3.52-.78,2.12-2.12l-9.88-9.49-1.82,2.36c5.05,3.35,9.54,7.43,13.41,12.1l1.82-2.36c-4.3-2.89-8.24-6.22-11.83-9.95l-1.82,2.36c4.78,2.9,9.26,6.23,13.39,9.99l1.82-2.36c-4.9-3.57-9.81-7.13-14.71-10.7-1.56-1.14-3.06,1.46-1.51,2.59,3.45,2.52,6.9,5.04,10.35,7.55,1.56,1.14,3.06-1.46,1.51-2.59-5.9-4.31-11.58-8.92-17.02-13.8l-1.82,2.36c3.63,2.32,6.85,5.25,9.45,8.69l2.05-2.05c-5.27-2.73-10.15-6.1-14.55-10.08l-1.82,2.36c5.25,2.88,9.98,6.52,14.1,10.87l1.82-2.36c-3.52-1.64-6.84-3.66-9.88-6.08l-1.46,2.51c4.23,1.52,8.04,3.97,11.22,7.15l1.82-2.36c-6.61-4.91-13.06-10.03-19.35-15.34l-1.82,2.36c4.12,1.75,7.75,4.3,10.77,7.59l2.12-2.12c-3.13-2.98-6.25-5.96-9.38-8.94l-1.82,2.36c3.57,2.58,6.89,5.48,9.97,8.65l1.82-2.36c-4.6-2.67-8.87-5.84-12.75-9.48l-1.82,2.36c3.95,2.93,7.7,6.11,11.25,9.51l1.82-2.36c-5.79-3.26-11.67-6.38-17.61-9.36l-1.51,2.59c4.99,2.24,9.8,4.84,14.41,7.78l1.51-2.59c-7.22-3.56-14.54-7.15-20.9-12.16l-1.82,2.36c4.23,2.16,8.47,4.32,12.7,6.48,1.54.78,2.95-1.06,1.82-2.36-2.77-3.17-5.94-5.93-9.43-8.27l-1.51,2.59c3.87,1.97,7.74,3.95,11.6,5.92,1.43.73,3.18-1.19,1.82-2.36-2.95-2.53-6.16-4.7-9.63-6.45-1.71-.86-3.2,1.62-1.51,2.59,3.13,1.79,5.8,4.22,7.85,7.19l2.05-2.05c-4.07-2.03-7.83-4.55-11.23-7.58l-1.82,2.36c4.45,2,8.64,4.47,12.54,7.4l1.51-2.59c-3.52-2.33-7.04-4.66-10.56-7l-1.16,2.74c1.91.63,3.68,1.52,5.33,2.67.79.56,1.53,1.18,2.23,1.86.34.33.71.66,1,1.03.15.2.43.79.49.72l1.46-.39c-3.39-.78-5.73-4.1-7.98-6.52-2.77-2.98-5.54-5.95-8.31-8.93l-1.46,2.51c2.77.94,5.31,2.34,7.63,4.12l1.51-2.59c-2.13-1.27-4.11-2.72-5.96-4.37l-1.82,2.36c3.18,1.96,6,4.37,8.46,7.19l1.82-2.36c-2.05-1.31-4.11-2.63-6.16-3.94-1.63-1.04-3.14,1.55-1.51,2.59h0Z"/>
      <path class="cls-27" d="m1676.56,3646.41c1.88,2.69,4.54,4.43,7.3,6.11s5.71,3.62,8.46,5.59c5.57,3.99,10.85,8.35,16.1,12.74s10.66,8.96,16.21,13.18,11.65,8.21,16.86,13.1c6.16,5.79,11.84,12.13,17.67,18.25,1.34,1.4,3.45-.72,2.12-2.12-5.14-5.39-10.19-10.88-15.48-16.12s-10.93-9.27-16.76-13.53c-11.05-8.08-21.05-17.48-31.98-25.71-3.08-2.32-6.23-4.54-9.48-6.6-2.94-1.86-6.38-3.47-8.43-6.39-1.1-1.57-3.7-.07-2.59,1.51h0Z"/>
      <path class="cls-27" d="m1759.22,3715.84c6.12,5.35,12.7,10.08,19.6,14.35s13.9,8.13,20.76,12.35c3.88,2.38,7.69,4.88,11.35,7.58,1.56,1.15,3.05-1.46,1.51-2.59-12.79-9.43-27.31-16.16-40.3-25.31-3.75-2.64-7.35-5.49-10.81-8.51-1.45-1.27-3.58.85-2.12,2.12h0Z"/>
      <path class="cls-27" d="m1790.69,3737.65c3.76,1.48,7.32,3.44,10.62,5.76l1.16-2.74c-2.29-.87-4.27-2.4-6.19-3.9l-1.06,2.56c1.47-.01,2.55,1.22,3.48,2.21,1.17,1.25,2.34,2.48,3.62,3.61,2.65,2.37,5.56,4.43,8.67,6.15,1.69.93,3.21-1.66,1.51-2.59-3.31-1.83-6.38-4.04-9.13-6.65-2.34-2.23-4.54-5.76-8.16-5.73-1.18.01-2.14,1.72-1.06,2.56,2.36,1.84,4.7,3.6,7.51,4.67,1.69.64,2.45-1.83,1.16-2.74-3.53-2.48-7.32-4.49-11.34-6.06-1.8-.71-2.58,2.19-.8,2.89h0Z"/>
      <path class="cls-27" d="m1809.98,3750.23c1.15,1.07,2.25,2.2,3.29,3.38.25.28.7.44,1.06.44s.81-.16,1.06-.44.46-.66.44-1.06-.16-.75-.44-1.06c-1.04-1.18-2.14-2.3-3.29-3.38-.29-.27-.66-.44-1.06-.44-.37,0-.81.16-1.06.44s-.46.66-.44,1.06.15.79.44,1.06h0Z"/>
      <path class="cls-27" d="m1810.66,3750.4c2.36,2.37,4.88,4.56,7.53,6.59.63.48,1.71.12,2.05-.54.42-.79.13-1.54-.54-2.05-.1-.07-.13-.1-.01-.01-.09-.07-.18-.14-.26-.21-.16-.12-.32-.25-.47-.37-.3-.24-.59-.47-.88-.72-.62-.51-1.23-1.03-1.83-1.56-1.19-1.05-2.34-2.14-3.46-3.26-.55-.56-1.57-.6-2.12,0s-.59,1.53,0,2.12h0Z"/>
      <path class="cls-27" d="m1812.26,3751.83c5.55,5.18,11.99,9.23,18.24,13.51,6.79,4.65,13.21,9.8,19.68,14.88,13.15,10.35,26.31,20.7,39.46,31.05,7.49,5.89,14.98,11.78,22.47,17.68,1.5,1.18,3.64-.93,2.12-2.12-13.22-10.4-26.44-20.8-39.66-31.2-6.58-5.17-13.15-10.35-19.73-15.52s-12.76-10.18-19.38-14.94c-7.07-5.08-14.68-9.48-21.07-15.45-1.41-1.32-3.54.8-2.12,2.12h0Z"/>
      <path class="cls-27" d="m1844.22,3779.32c8.52,5.34,16.76,11.13,24.66,17.36l1.82-2.36c-4.12-2.98-8.45-5.65-12.97-7.99-2.15-1.11-4.35-2.17-6.32-3.59s-3.3-3.16-4.75-4.94c-5.47-6.73-12.98-10.63-20.33-14.94-4.08-2.39-8.05-4.97-11.36-8.38l-1.82,2.36c4.22,3.13,8.61,6.03,13.16,8.67,1.7.99,3.06-1.49,1.51-2.59-6.61-4.72-13.44-9.12-20.47-13.2-1.68-.97-3.16,1.58-1.51,2.59,1,.62,2,1.23,3,1.85,1.31.8,2.77-.77,2.05-2.05-1.16-2.07-2.88-3.73-5.01-4.79l-1.16,2.74c1.77.7,3.43,1.69,4.9,2.9l1.82-2.36c-2.64-1.86-5.46-3.37-8.45-4.59-1.55-.63-2.27,1.5-1.46,2.51.67.83,1.5,1.47,2.47,1.92,1.51.7,3.03-1.05,1.82-2.36-2.14-2.32-4.63-4.27-7.4-5.79-1.69-.94-3.16,1.57-1.51,2.59l3.09,1.92,1.51-2.59c-2.86-1.76-5.71-3.52-8.57-5.28l-1.51,2.59c2.05,1.15,4.15,2.2,6.31,3.15,1.45.64,3.15-1.08,1.82-2.36-.95-.91-2-1.68-3.18-2.27-1.74-.87-3.1,1.5-1.51,2.59l17.9,12.34,1.16-2.74c-4.47-.87-8.35-4.34-11.97-6.92-4.05-2.88-8.05-5.81-12.01-8.8l-1.51,2.59c1.62.93,3.23,1.85,4.85,2.78s3.18-1.62,1.51-2.59c-2.99-1.74-5.97-3.48-8.96-5.23-1.67-.98-3.18,1.62-1.51,2.59,2.99,1.74,5.97,3.48,8.96,5.23l1.51-2.59c-1.62-.93-3.23-1.85-4.85-2.78-1.72-.99-3.02,1.46-1.51,2.59,4.09,3.09,8.22,6.11,12.4,9.08,3.75,2.66,7.66,6.05,12.3,6.94,1.68.33,2.58-1.76,1.16-2.74l-17.9-12.34-1.51,2.59c.96.48,1.8,1.06,2.57,1.8l1.82-2.36c-2.16-.95-4.26-1.99-6.31-3.15-1.69-.95-3.16,1.58-1.51,2.59,2.86,1.76,5.71,3.52,8.57,5.28,1.65,1.02,3.15-1.57,1.51-2.59l-3.09-1.92-1.51,2.59c2.56,1.41,4.81,3.18,6.79,5.33l1.82-2.36c-.77-.36-1.33-.79-1.86-1.45l-1.46,2.51c2.74,1.12,5.32,2.58,7.73,4.28,1.38.97,3.13-1.27,1.82-2.36-1.9-1.56-3.94-2.77-6.23-3.67-1.57-.63-2.67,1.99-1.16,2.74,1.7.85,3,2.06,3.93,3.72l2.05-2.05c-1-.62-2-1.23-3-1.85l-1.51,2.59c7.03,4.08,13.85,8.48,20.47,13.2l1.51-2.59c-4.55-2.64-8.94-5.54-13.16-8.67-1.4-1.04-2.97,1.17-1.82,2.36,5.96,6.15,13.85,9.66,21.01,14.14,3.59,2.25,6.97,4.79,9.73,8.03,1.52,1.79,2.89,3.72,4.67,5.27s3.91,2.79,6.05,3.9c5.16,2.69,10.16,5.55,14.88,8.97,1.37.99,3.16-1.3,1.82-2.36-8.1-6.39-16.53-12.35-25.27-17.83-1.64-1.03-3.15,1.57-1.51,2.59h0Z"/>
      <path class="cls-27" d="m1786.06,3734.23c-12.56-9.17-24.81-18.75-36.74-28.73-1.46-1.22-3.56.79-2.12,2.12,2.47,2.28,4.94,4.56,7.41,6.84l1.82-2.36c-6.28-3.91-12.21-8.34-17.72-13.28l-1.82,2.36,11.01,6.99c1.51.96,2.87-1.12,1.82-2.36-2.29-2.69-5.04-4.94-8.13-6.67-1.74-.98-3,1.45-1.51,2.59,1.58,1.22,3.23,2.32,4.96,3.3,1.54.88,2.89-1.09,1.82-2.36l-1.77-2.09c-1.09-1.29-3.34.42-2.36,1.82,1.73,2.46,3.86,4.51,6.4,6.13,1.42.9,3.11-1.22,1.82-2.36l-14.92-13.15-1.82,2.36,8.9,6.09c1.61,1.1,3.07-1.48,1.51-2.59-4.41-3.14-8.82-6.28-13.23-9.42l-1.51,2.59,3.99,2.35c1.24.73,2.91-.78,2.05-2.05-.59-.87-1.25-1.66-2.03-2.36-1.43-1.28-3.47.72-2.12,2.12,2.74,2.84,5.48,5.68,8.21,8.52l-.23-1.82c.46-.16.49-.26.07-.3-.16-.06-.31-.14-.45-.24-.42-.24-.82-.54-1.23-.8-1.03-.67-2.05-1.34-3.08-2.01-1.98-1.29-3.97-2.59-5.95-3.88-1.28-.83-2.79.8-2.05,2.05,1.76,2.99,4.29,5.42,7.36,7.03,1.51.79,3-1.09,1.82-2.36-2.51-2.7-5.54-4.72-8.94-6.12-1.54-.64-2.29,1.5-1.46,2.51,2.94,3.58,6.57,6.54,10.66,8.73,1.48.79,3.05-1.12,1.82-2.36-4.34-4.32-9.3-7.98-14.73-10.81-1.52-.8-2.97,1.08-1.82,2.36,2.81,3.13,6.36,5.41,10.34,6.74,1.48.5,2.44-1.47,1.46-2.51-2.8-2.96-6.13-5.36-9.84-7.05-1.75-.79-3.13,1.49-1.51,2.59,2.96,2.03,6.2,3.63,9.61,4.73,1.36.44,2.89.97,4.33.6s2.39-1.85,2.01-3.32c-.43-1.67-2.03-2.61-3.33-3.55-1.58-1.15-3.17-2.29-4.75-3.44-3.3-2.39-6.6-4.77-9.89-7.16-1.03-.75-2.65.5-2.2,1.69,1.38,3.66,4.46,5.88,7.62,7.94,1.64,1.06,3.07-1.5,1.51-2.59-4.1-2.88-8.45-5.35-13.02-7.39-1.42-.63-3.23,1.16-1.82,2.36,1.63,1.38,3.46,2.37,5.53,2.9,1.4.36,2.59-1.46,1.46-2.51-1.89-1.75-3.79-3.49-5.68-5.24l-1.46,2.51c2.16.34,4.07,1.12,5.85,2.41l1.51-2.59c-3.35-2.19-6.58-4.54-9.67-7.07l-1.82,2.36,6.93,3.77,1.51-2.59c-4.8-2.47-9.42-5.27-13.83-8.39l-1.51,2.59c2.76,1.44,5.53,2.89,8.29,4.33,1.75.91,3.03-1.45,1.51-2.59-3.41-2.56-7.1-5.34-11.4-6.12-2.01-.36-4.15-.26-5.82,1.03-1.55,1.19-2.21,2.91-1.94,4.82l2.74-1.16c-.82-1.52-2.01-2.72-3.5-3.58-1.68-.96-3.19,1.62-1.51,2.59,1.97,1.14,3.93,2.28,5.9,3.42,1.67.97,3.19-1.62,1.51-2.59-1.97-1.14-3.93-2.28-5.9-3.42l-1.51,2.59c1.07.61,1.84,1.42,2.43,2.5.87,1.62,2.97.4,2.74-1.16-.19-1.35,1.45-2.13,2.52-2.24,1.5-.15,3.09.39,4.45.96,2.84,1.19,5.34,3.1,7.79,4.94l1.51-2.59c-2.76-1.44-5.53-2.89-8.29-4.33-1.73-.91-3.08,1.48-1.51,2.59,4.41,3.12,9.02,5.92,13.83,8.39,1.71.88,3.22-1.66,1.51-2.59-2.31-1.26-4.62-2.52-6.93-3.77-1.43-.78-3.19,1.23-1.82,2.36,3.29,2.7,6.71,5.22,10.28,7.54,1.64,1.07,3.05-1.48,1.51-2.59-1.95-1.41-4.19-2.33-6.57-2.71-1.35-.21-2.67,1.39-1.46,2.51,1.89,1.75,3.79,3.49,5.68,5.24l1.46-2.51c-1.56-.4-2.98-1.08-4.21-2.13l-1.82,2.36c4.57,2.04,8.92,4.51,13.02,7.39l1.51-2.59c-2.42-1.57-5.18-3.32-6.25-6.14l-2.2,1.69c4.95,3.58,9.89,7.16,14.84,10.74.49.35,1.01.94,1.53,1.22l.2.28.11-.26c-.22,0-.43.02-.65-.01-1.24-.16-2.55-.72-3.71-1.16-2.57-.98-5-2.31-7.27-3.86l-1.51,2.59c3.5,1.59,6.59,3.78,9.23,6.58l1.46-2.51c-3.5-1.17-6.55-3.23-9.01-5.97l-1.82,2.36c5.22,2.72,9.95,6.19,14.12,10.34l1.82-2.36c-3.89-2.08-7.25-4.85-10.05-8.26l-1.46,2.51c2.91,1.2,5.48,3.05,7.62,5.35l1.82-2.36c-2.64-1.38-4.77-3.38-6.29-5.95l-2.05,2.05c2.81,1.83,5.61,3.66,8.42,5.49,1.72,1.12,4.81,3.35,6.33.67.33-.59.23-1.33-.23-1.82-2.74-2.84-5.48-5.68-8.21-8.52l-2.12,2.12c.59.53,1.11,1.09,1.56,1.75l2.05-2.05-3.99-2.35c-1.69-1-3.06,1.49-1.51,2.59,4.41,3.14,8.82,6.28,13.23,9.42l1.51-2.59c-2.97-2.03-5.94-4.06-8.9-6.09-1.4-.96-3.1,1.23-1.82,2.36,4.97,4.38,9.95,8.77,14.92,13.15l1.82-2.36c-2.09-1.33-3.89-3.02-5.32-5.05l-2.36,1.82,1.77,2.09,1.82-2.36c-1.73-.99-3.38-2.09-4.96-3.3l-1.51,2.59c2.88,1.62,5.38,3.69,7.52,6.2l1.82-2.36c-3.67-2.33-7.34-4.66-11.01-6.99-1.42-.9-3.1,1.21-1.82,2.36,5.7,5.11,11.83,9.71,18.32,13.75,1.43.89,3.08-1.19,1.82-2.36-2.47-2.28-4.94-4.56-7.41-6.84l-2.12,2.12c12.12,10.14,24.58,19.88,37.35,29.2,1.56,1.14,3.06-1.46,1.51-2.59h0Z"/>
      <path class="cls-27" d="m1704.89,3666.56c-2.91-2.22-5.94-4.26-9.09-6.11-1.58-.93-2.81,1.09-1.82,2.36.6.76,1.4,1.31,2.21,1.81.64.4,1.59.81,1.87,1.56l2.2-1.69c-2.31-1.68-4.87-2.93-7.59-3.79-1.5-.47-2.42,1.45-1.46,2.51,1.11,1.22,2.48,2.05,4.05,2.52,1.25.38,2.37-1.1,1.69-2.2-1.38-2.26-3.12-4.15-5.21-5.76l-1.51,2.59c1.42.7,2.85,1.41,4.27,2.11s3.23-1.23,1.82-2.36c-3.3-2.64-6.87-4.75-10.77-6.38-1.5-.63-2.35,1.51-1.46,2.51,1.04,1.17,2.32,1.95,3.81,2.42,1.7.53,2.5-1.82,1.16-2.74-2.75-1.88-5.66-3.49-8.73-4.81l-1.16,2.74c.66.26,1.32.52,1.98.78,1.38.54,2.57-1.57,1.46-2.51-1.37-1.16-2.91-1.98-4.48-2.83-1.48-.8-3-1.63-3.93-3.09l-2.05,2.05c4.56,2.02,7.49,6.96,12.69,7.68,1.17.16,2.5-.99,1.69-2.2-1.99-3.02-5.63-4.72-8.61-6.61s-6.44-3.49-8.04-6.63l-2.36,1.82c1.48,1.22,3.05,2.26,4.79,3.08s3.26-1.77,1.51-2.59c-1.5-.7-2.91-1.55-4.19-2.61s-3.15.24-2.36,1.82c1.57,3.11,4.66,4.89,7.5,6.69,1.75,1.11,3.49,2.21,5.24,3.32,1.43.91,2.95,1.79,3.9,3.23l1.69-2.2c-4.82-.66-7.68-5.48-11.97-7.38-1.25-.55-2.94.66-2.05,2.05,2.14,3.33,6,4.09,8.88,6.52l1.46-2.51c-.66-.26-1.32-.52-1.98-.78-1.57-.62-2.72,2.07-1.16,2.74,3.06,1.33,5.97,2.93,8.73,4.81l1.16-2.74c-1.01-.32-1.78-.86-2.48-1.65l-1.46,2.51c3.38,1.42,6.58,3.32,9.45,5.61l1.82-2.36c-1.42-.7-2.85-1.41-4.27-2.11-1.77-.88-3.02,1.43-1.51,2.59,1.67,1.29,3.04,2.89,4.14,4.68l1.69-2.2c-1.1-.33-1.95-.91-2.73-1.75l-1.46,2.51c2.49.78,4.77,1.96,6.88,3.49,1.03.75,2.65-.5,2.2-1.69s-1.16-1.97-2.18-2.68c-.94-.65-1.96-1.1-2.67-2.02l-1.82,2.36c3.15,1.85,6.19,3.89,9.09,6.11,1.53,1.17,3.03-1.43,1.51-2.59h0Z"/>
      <path class="cls-27" d="m1675.3,3645.79l8.31,7.06,1.82-2.36c-3.04-2-6.08-4-9.12-5.99-2.74-1.8-5.44-3.58-7.92-5.72-4.55-3.94-8.71-8.46-14.15-11.22-1.72-.87-3.24,1.72-1.51,2.59,5.46,2.76,9.54,7.37,14.15,11.27,5.23,4.43,11.32,7.9,17.04,11.66,1.41.92,3.13-1.25,1.82-2.36l-8.31-7.06c-1.46-1.24-3.6.87-2.12,2.12h0Z"/>
      <path class="cls-27" d="m1740.38,3700.06c1.83,1.3,3.76,2.48,5.77,3.49,1.18.59,3.88,1.54,3.28,3.31l1.85-1.05c-2.37-.81-4.39-2.27-6-4.19l-2.12,2.12c4.37,3.97,7.9,8.69,11.39,13.42l1.3-2.26c.09.04.1.01.01-.07l-1.06,2.56c.36.03.66.17.92.4,1.43,1.28,3.47-.72,2.12-2.12-2.41-2.49-5.52-4.22-8.91-4.94-1.49-.31-2.47,1.37-1.46,2.51,1.2,1.36,2.64,2.49,4.24,3.35,1.7.92,3.22-1.67,1.51-2.59-1.39-.75-2.58-1.7-3.63-2.88l-1.46,2.51c2.92.61,5.51,2.02,7.59,4.17l2.12-2.12c-.89-.8-1.86-1.2-3.04-1.28-1.36-.1-1.89,1.67-1.06,2.56.58.62,1.27.88,2.11.95,1.08.09,1.95-1.37,1.3-2.26-3.64-4.93-7.3-9.89-11.86-14.03-1.45-1.32-3.35.65-2.12,2.12,1.93,2.32,4.47,3.99,7.32,4.96.8.27,1.6-.32,1.85-1.05.9-2.66-1.17-4.9-3.36-6.05-2.44-1.28-4.82-2.54-7.06-4.14-1.58-1.12-3.08,1.48-1.51,2.59h0Z"/>
      <path class="cls-27" d="m1676.7,3646.79c2.87,2.36,5.86,4.63,8.36,7.39.53.58,1.59.58,2.12,0,.57-.62.56-1.5,0-2.12-2.5-2.76-5.5-5.03-8.36-7.39-.61-.5-1.54-.64-2.12,0-.51.55-.65,1.59,0,2.12h0Z"/>
      <path class="cls-27" d="m1688.83,3660.37c1.24.36,2.17,1.04,2.97,2.04l2.12-2.12c-2-1.97-4.21-3.7-6.59-5.18-1.23-.77-2.91.8-2.05,2.05,1.98,2.89,4.59,5.18,6.95,7.73,2.55,2.75,4.01,6.1,6.06,9.21,4.45,6.76,9.25,13.34,14.01,19.88,2.47,3.39,5.06,6.71,8.23,9.48,1.44,1.26,3.55-.8,2.12-2.12-3.96-3.67-7.86-7.41-11.89-11-3.64-3.23-7.49-6.14-12.01-8.02-1.78-.74-2.56,2.16-.8,2.89,4.28,1.78,7.92,4.75,11.33,7.82,3.8,3.42,7.5,6.95,11.25,10.42l2.12-2.12c-3.53-3.09-6.32-6.84-9.04-10.64-3.03-4.24-6.05-8.49-9.04-12.76-1.47-2.09-2.97-4.17-4.33-6.33-1.28-2.03-2.26-4.25-3.68-6.18-2.6-3.52-6.21-6.16-8.69-9.77l-2.05,2.05c2.17,1.35,4.16,2.91,5.99,4.71,1.41,1.39,3.3-.65,2.12-2.12-1.1-1.39-2.59-2.32-4.29-2.81-1.86-.53-2.65,2.36-.8,2.89h0Z"/>
      <path class="cls-6" d="m2029,3903.74c17.3,12.29,34.79,24.65,54.12,33.58,9.53,4.4,19.47,7.96,29.75,10.09,11.55,2.4,23.37,2.91,35.12,3.27,6.79.21,13.58.36,20.37.46,6.31.09,12.79.34,18.85-1.69,1.59-.53,1.34-2.91-.4-2.95-19.13-.45-38.23-1.75-57.24-3.92v3c8.23.83,16.42,1.95,24.56,3.37l.4-2.95c-11-.68-21.91-2.24-32.66-4.66l-.4,2.95c13.07,1.07,26.13,2.14,39.2,3.21,1.94.16,1.89-2.8,0-3-12.61-1.32-25.21-2.63-37.82-3.95v3c10.06-.11,20.06,1.01,29.84,3.38l.8-2.89c-14.53-1.99-28.93-4.79-43.14-8.39l-.4,2.95c17.85,1.83,35.55,4.85,53,9l.4-2.95c-9.51-.51-18.9-2.2-28-5.01l-.4,2.95c10.27.26,20.46,1.62,30.45,4.05l.4-2.95c-16.47-1-32.87-3-49.11-5.97l-.8,2.89c18.3,2.88,36.6,5.76,54.89,8.64,5.17.81,10.34,1.63,15.51,2.44l.4-2.95-7.42-.95c-1.67-.21-2.05,2.63-.4,2.95,14.31,2.77,28.97,3.02,43.37.75,1.9-.3,1.09-3.19-.8-2.89-13.83,2.18-28.03,1.91-41.77-.75l-.4,2.95,7.42.95c1.66.21,2.07-2.68.4-2.95-18.3-2.88-36.6-5.76-54.89-8.64-5.17-.81-10.34-1.63-15.51-2.44-1.87-.3-2.71,2.54-.8,2.89,16.49,3.03,33.16,5.06,49.9,6.08,1.69.1,2.03-2.55.4-2.95-10.23-2.5-20.71-3.89-31.24-4.16-1.73-.04-1.99,2.46-.4,2.95,9.35,2.88,19.03,4.59,28.8,5.12,1.69.09,2.04-2.56.4-2.95-17.71-4.22-35.69-7.25-53.8-9.11-1.7-.17-2.01,2.54-.4,2.95,14.21,3.59,28.62,6.4,43.14,8.39,1.85.25,2.73-2.43.8-2.89-10.02-2.42-20.32-3.6-30.63-3.48-1.97.02-1.88,2.8,0,3,12.61,1.32,25.21,2.63,37.82,3.95v-3c-13.07-1.07-26.13-2.14-39.2-3.21-1.69-.14-2.04,2.58-.4,2.95,11,2.48,22.2,4.08,33.45,4.77,1.66.1,2.08-2.65.4-2.95-8.41-1.47-16.87-2.63-25.36-3.48-1.93-.19-1.89,2.78,0,3,19.01,2.17,38.11,3.47,57.24,3.92l-.4-2.95c-5.35,1.79-10.99,1.68-16.57,1.6-5.96-.08-11.93-.2-17.89-.37-11.75-.33-23.6-.6-35.21-2.68-20.52-3.67-39.39-13.04-56.92-24.02-10.03-6.28-19.69-13.11-29.33-19.96-1.58-1.12-3.08,1.48-1.51,2.59h0Z"/>
      <path class="cls-6" d="m2155.09,3940.82c-15.66-2.11-31.41-3.48-47.2-4.08-1.66-.06-2.08,2.63-.4,2.95,12.07,2.3,24.16,4.62,35.89,8.32l.4-2.95c-10.18-1.03-20.2-3.35-29.83-6.82l-.8,2.89c7.21,1.17,14.36,2.67,21.44,4.47v-2.89c-6.77.92-13.78-.19-19.95-3.11l-.76,2.8c6.25.62,12.34,2.43,17.93,5.29l1.16-2.74c-10.06-2.04-20.13-4.07-30.19-6.11-1.88-.38-2.66,2.32-.8,2.89,1.28.39,2.4,1.02,3.4,1.91,1.43,1.29,3.56-.83,2.12-2.12s-2.94-2.14-4.72-2.69l-.8,2.89c10.06,2.04,20.13,4.07,30.19,6.11,1.57.32,2.76-1.92,1.16-2.74-6.09-3.12-12.64-5.03-19.44-5.7-1.46-.15-2.07,2.17-.76,2.8,6.98,3.3,14.62,4.45,22.27,3.41,1.52-.21,1.34-2.55,0-2.89-7.08-1.8-14.23-3.3-21.44-4.47-1.89-.31-2.64,2.23-.8,2.89,9.89,3.56,20.17,5.86,30.62,6.92,1.74.18,1.94-2.46.4-2.95-11.73-3.71-23.82-6.03-35.89-8.32l-.4,2.95c15.52.59,31.01,1.9,46.4,3.97.81.11,1.6-.19,1.85-1.05.2-.7-.25-1.74-1.05-1.85h0Z"/>
      <path class="cls-6" d="m2107.1,3942.77c-.42.03-1.03-.58-1.44-.76-.66-.3-1.34-.44-2.05-.56-1.52-.26-2.73-.83-4.11-1.51-2.71-1.33-5.57-2.33-8.52-2.96-1.17-.25-2.06.7-1.85,1.85.17.89.89,1.23,1.64,1.56s1.47.62,2.21.93c1.55.64,3.11,1.25,4.68,1.83s2.7-2.03,1.16-2.74-3.28-1.4-4.83-2.24c-1.33-.72-2.41-1.82-3.95-2.1-.8-.15-1.62.22-1.85,1.05-.2.73.25,1.7,1.05,1.85,1.32.24,2.31,1.33,3.48,1.93,1.5.76,3.06,1.41,4.58,2.11l1.16-2.74c-1.2-.45-2.4-.91-3.59-1.39-.57-.23-1.14-.46-1.7-.7-.4-.17-1.2-.34-1.49-.63l.39.66-.03-.17-1.85,1.85c3.03.65,5.88,1.69,8.65,3.09,1.4.71,2.73,1.16,4.27,1.44.66.12,1.22.25,1.79.61.7.44,1.35.83,2.21.77,1.91-.14,1.93-3.15,0-3h0Z"/>
      <path class="cls-6" d="m2097.23,3939.32l-.61-.12c-1.91-.39-2.6,2.22-.8,2.89,1.2.45,2.42.84,3.66,1.17,1.9.5,2.58-2.23.8-2.89-.6-.22-1.19-.44-1.79-.66l-.8,2.89c2.92.87,5.84,1.74,8.77,2.6,1.86.55,2.64-2.32.8-2.89-5.01-1.56-10.02-3.11-15.03-4.67l-.8,2.89c.35.05.57.08.83.32l1.46-2.51c-6.81-2.47-13.37-5.57-19.6-9.26-6.5-3.86-12.68-8.29-18.95-12.51-1.61-1.08-3.11,1.52-1.51,2.59,6.4,4.3,12.7,8.83,19.34,12.75s13.02,6.83,19.92,9.33c1.42.51,2.53-1.52,1.46-2.51-.63-.58-1.3-.97-2.15-1.1-1.86-.27-2.69,2.3-.8,2.89,5.01,1.56,10.02,3.11,15.03,4.67l.8-2.89c-2.92-.87-5.84-1.74-8.77-2.6-1.88-.56-2.58,2.23-.8,2.89.6.22,1.19.44,1.79.66l.8-2.89c-1.24-.33-2.46-.71-3.66-1.17l-.8,2.89.61.12c1.88.39,2.69-2.5.8-2.89h0Z"/>
      <path class="cls-6" d="m2066.46,3921.84c13.06,5.14,26.91,7.66,40.7,10.02,1.87.32,2.71-2.51.8-2.89-4.1-.83-8.14-1.88-12.13-3.16-1.59-.51-2.72,2.04-1.16,2.74,8.47,3.79,17.37,6.41,26.27,8.97l.8-2.89c-3.26-.59-6.51-1.18-9.77-1.77l-.4,2.95c6.78.54,13.49,1.6,20.1,3.15l.4-2.95c-5.42.27-10.66-1.07-15.86-2.43l-.8,2.89c6.07,1.12,12.09,2.49,18.05,4.12v-2.89c-2.07.85-4.07,1.8-6.01,2.91-.99.57-.95,2.01,0,2.59,1.5.91,3.12,1.49,4.85,1.74.84.12,3.97.23,3.59,1.74l1.45-1.1c-7.98-.7-15.93-1.75-23.82-3.13l-.4,2.95c.8.1,1.6.2,2.4.3,1.66.21,2.07-2.7.4-2.95-4.6-.66-9.18-1.48-13.72-2.44-1.89-.4-2.63,2.27-.8,2.89l1.99.68.8-2.89c-1.2-.3-2.41-.6-3.61-.9-1.91-.47-2.58,2.22-.8,2.89s3.49,1.12,5.31,1.4,2.71-2.56.8-2.89c-4.94-.87-9.73-2.39-14.24-4.6-1.72-.84-3.24,1.69-1.51,2.59l3.26,1.71,1.16-2.74c-2.51-.9-4.9-2.04-7.19-3.4-1.7-1.01-3.03,1.47-1.51,2.59,1.71,1.27,3.54,2.32,5.5,3.16,1.72.74,3.26-1.67,1.51-2.59-6.42-3.39-12.75-6.94-18.98-10.65-1.66-.99-3.17,1.6-1.51,2.59,6.24,3.71,12.57,7.26,18.98,10.65l1.51-2.59c-1.96-.84-3.78-1.89-5.5-3.16l-1.51,2.59c2.51,1.49,5.16,2.72,7.91,3.7,1.6.57,2.65-1.96,1.16-2.74l-3.26-1.71-1.51,2.59c4.74,2.32,9.75,3.98,14.95,4.9l.8-2.89c-1.82-.28-3.59-.75-5.31-1.4l-.8,2.89c1.2.3,2.41.6,3.61.9,1.89.47,2.62-2.27.8-2.89l-1.99-.68-.8,2.89c4.55.96,9.12,1.78,13.72,2.44l.4-2.95c-.8-.1-1.6-.2-2.4-.3-1.66-.21-2.06,2.65-.4,2.95,8.16,1.43,16.37,2.51,24.62,3.24.63.06,1.3-.5,1.45-1.1.54-2.17-.87-4.11-2.87-4.87-1.1-.42-2.27-.45-3.42-.65-1.27-.22-2.43-.68-3.53-1.34v2.59c1.71-.98,3.47-1.86,5.29-2.61,1.28-.53,1.56-2.47,0-2.89-5.96-1.63-11.98-3-18.05-4.12-1.87-.34-2.69,2.4-.8,2.89,5.44,1.42,10.98,2.81,16.65,2.53,1.62-.08,2.12-2.54.4-2.95-6.87-1.61-13.86-2.7-20.9-3.26-1.67-.13-2.07,2.64-.4,2.95,3.26.59,6.51,1.18,9.77,1.77,1.87.34,2.68-2.35.8-2.89-8.64-2.49-17.32-4.99-25.55-8.67l-1.16,2.74c3.98,1.28,8.03,2.33,12.13,3.16l.8-2.89c-13.78-2.36-27.63-4.89-40.7-10.02-1.8-.71-2.58,2.19-.8,2.89h0Z"/>
      <path class="cls-6" d="m2107.99,3942.6c-2.57-.67-5.13-1.35-7.7-2.02l-.8,2.89c.86.18,1.72.37,2.58.55.79.17,1.62-.24,1.85-1.05.21-.77-.26-1.65-1.05-1.85-2.2-.55-4.4-1.09-6.61-1.64-1.87-.47-2.67,2.43-.8,2.89,2.2.55,4.4,1.09,6.61,1.64l.8-2.89c-.86-.18-1.72-.37-2.58-.55-.79-.17-1.62.24-1.85,1.05s.26,1.64,1.05,1.85c2.57.67,5.13,1.35,7.7,2.02,1.87.49,2.67-2.4.8-2.89h0Z"/>
      <path class="cls-6" d="m2102.84,3944.59h1.19c.21,0,.4-.04.58-.13.19-.06.35-.16.48-.31.15-.14.25-.3.31-.48.09-.18.14-.37.13-.58l-.05-.4c-.07-.25-.2-.47-.39-.66l-.3-.23c-.23-.14-.49-.2-.76-.2h-1.19c-.21,0-.4.04-.58.13-.19.06-.35.16-.48.31-.15.14-.25.3-.31.48-.09.18-.14.37-.13.58l.05.4c.07.25.2.47.39.66l.3.23c.23.14.49.2.76.2h0Z"/>
      <path class="cls-6" d="m2104.52,3941.65h-.05c-.21,0-.4.04-.58.13-.19.06-.35.16-.48.31-.15.14-.25.3-.31.48-.09.18-.14.37-.13.58l.05.4c.07.25.2.47.39.66l.3.23c.23.14.49.2.76.2h.05c.21,0,.4-.04.58-.13.19-.06.35-.16.48-.31.15-.14.25-.3.31-.48.09-.18.14-.37.13-.58l-.05-.4c-.07-.25-.2-.47-.39-.66l-.3-.23c-.23-.14-.49-.2-.76-.2h0Z"/>
      <path class="cls-6" d="m2103.22,3944.48l.7.07c.21,0,.4-.04.58-.13.19-.06.35-.16.48-.31.15-.14.25-.3.31-.48.09-.18.14-.37.13-.58l-.05-.4c-.07-.25-.2-.47-.39-.66l-.3-.23c-.23-.14-.49-.2-.76-.2l-.7-.07c-.21,0-.4.04-.58.13-.19.06-.35.16-.48.31-.15.14-.25.3-.31.48-.09.18-.14.37-.13.58l.05.4c.07.25.2.47.39.66l.3.23c.23.14.49.2.76.2h0Z"/>
      <path class="cls-6" d="m2105.22,3944.7c1.93,0,1.93-3,0-3s-1.93,3,0,3h0Z"/>
      <path class="cls-6" d="m2103,3944.38h.11c.21,0,.4-.04.58-.13.19-.06.35-.16.48-.31.15-.14.25-.3.31-.48.09-.18.14-.37.13-.58l-.05-.4c-.07-.25-.2-.47-.39-.66l-.3-.23c-.23-.14-.49-.2-.76-.2h-.11c-.21,0-.4.04-.58.13-.19.06-.35.16-.48.31-.15.14-.25.3-.31.48-.09.18-.14.37-.13.58l.05.4c.07.25.2.47.39.66l.3.23c.23.14.49.2.76.2h0Z"/>
      <path class="cls-6" d="m2103.2,3944.42l.38.11c.2.06.4.07.6.03.2,0,.39-.07.56-.18.17-.09.32-.22.42-.39.13-.14.22-.31.27-.51l.05-.4c0-.27-.07-.52-.2-.76l-.23-.3c-.19-.19-.41-.31-.66-.39l-.38-.11c-.2-.06-.4-.07-.6-.03-.2,0-.39.07-.56.18-.17.09-.32.22-.42.39-.13.14-.22.31-.27.51l-.05.4c0,.27.07.52.2.76l.23.3c.19.19.41.31.66.39h0Z"/>
      <path class="cls-6" d="m2104.52,3944.55l.22.11c.17.11.36.17.56.18.2.04.4.04.6-.03.2-.05.37-.14.51-.27.16-.11.29-.25.39-.42l.15-.36c.07-.27.07-.53,0-.8l-.15-.36c-.13-.23-.31-.4-.54-.54l-.22-.11c-.17-.11-.36-.17-.56-.18-.2-.04-.4-.04-.6.03-.2.05-.37.14-.51.27-.16.11-.29.25-.39.42l-.15.36c-.07.27-.07.53,0,.8l.15.36c.13.23.31.4.54.54h0Z"/>
      <path class="cls-6" d="m2106.19,3944.92c1.93,0,1.93-3,0-3s-1.93,3,0,3h0Z"/>
      <path class="cls-6" d="m2105.7,3941.91c-.37.04-.74.04-1.11-.01l.4.05c-.12-.02-.24-.04-.36-.06-.2-.06-.4-.07-.6-.03-.2,0-.39.07-.56.18-.17.09-.32.22-.42.39-.13.14-.22.31-.27.51l-.05.4c0,.27.07.52.2.76l.23.3c.19.19.41.31.66.39.61.13,1.24.2,1.86.13.21,0,.4-.04.58-.13.19-.06.35-.16.48-.31.15-.14.25-.3.31-.48.09-.18.14-.37.13-.58l-.05-.4c-.07-.25-.2-.47-.39-.66l-.3-.23c-.23-.14-.49-.2-.76-.2h0Z"/>
      <path class="cls-6" d="m2103.54,3944.65c1.93,0,1.93-3,0-3s-1.93,3,0,3h0Z"/>
      <path class="cls-6" d="m2112.21,3934.65c-9.5-4.5-19-9.01-28.5-13.51-1.76-.83-3.07,1.45-1.51,2.59,8.91,6.5,18.49,12.04,28.57,16.52l1.16-2.74c-10.04-1.42-19.92-3.75-29.53-6.97l-.8,2.89c6.05,1.62,11.72,4.25,16.87,7.81,1.39.96,3.11-1.24,1.82-2.36-6.03-5.23-12.85-9.35-20.27-12.29l-.8,2.89c7.07,1.63,13.99,3.83,20.71,6.58,1.56.64,2.68-2,1.16-2.74-8.6-4.19-17.69-7.29-27.07-9.18-1.56-.31-2.78,1.96-1.16,2.74,3.28,1.59,6.55,3.17,9.83,4.76l1.16-2.74c-9.24-3.21-18.48-6.41-27.72-9.62l-.8,2.89c3.12.59,6.24,1.19,9.36,1.78,1.36.26,2.66-1.43,1.46-2.51-7.68-6.89-16.31-12.67-25.63-17.1l-1.16,2.74c9.85,3.7,19.51,7.88,28.96,12.51l1.16-2.74c-14.12-3.44-27.98-8.01-41.34-13.73s-26.25-12.5-38.5-20.29c-6.96-4.43-13.72-9.18-20.24-14.24l-1.46,2.51c16.33,4.93,31.16,13.58,45.43,22.75,14.36,9.23,28.36,19.14,43.58,26.93,8.49,4.35,17.35,8,26.58,10.42,1.92.5,2.53-2.17.8-2.89-14.53-6.02-29.18-12.17-41.94-21.51l-1.16,2.74c10.23,3.26,20.2,7.26,29.84,11.99l.76-2.8c-19.8-1.45-35.62-15.13-50.58-26.78-7.73-6.02-15.67-11.79-24.57-15.98-7.77-3.65-15.93-6.34-23.87-9.59-8.71-3.56-17.23-7.98-23.64-15.02-1.3-1.43-3.42.7-2.12,2.12,11.89,13.04,29.76,17,45.34,23.82,9.03,3.95,17.13,9.38,24.93,15.36s15.58,12.56,24.04,17.91c9.24,5.84,19.47,10.35,30.49,11.16,1.46.11,2.07-2.15.76-2.8-9.87-4.84-20.08-8.96-30.56-12.29-1.73-.55-2.44,1.8-1.16,2.74,12.98,9.49,27.9,15.69,42.66,21.81l.8-2.89c-16.47-4.31-31.44-12.6-45.74-21.63s-28.41-19.13-43.5-27.25c-8.42-4.53-17.2-8.45-26.36-11.22-1.35-.41-2.68,1.56-1.46,2.51,11.63,9.04,23.96,17.14,36.91,24.16,13.01,7.05,26.6,13.03,40.58,17.86,7.85,2.71,15.84,5.05,23.91,7.01,1.59.39,2.74-1.97,1.16-2.74-9.68-4.75-19.59-9.02-29.68-12.81-1.58-.59-2.69,2.01-1.16,2.74,9.09,4.32,17.52,9.91,25.02,16.63l1.46-2.51c-3.12-.59-6.24-1.19-9.36-1.78-1.89-.36-2.63,2.26-.8,2.89,9.24,3.21,18.48,6.41,27.72,9.62,1.59.55,2.69-2,1.16-2.74-3.28-1.59-6.55-3.17-9.83-4.76l-1.16,2.74c9.12,1.83,17.98,4.8,26.35,8.87l1.16-2.74c-6.71-2.75-13.63-4.95-20.71-6.58-1.92-.44-2.56,2.19-.8,2.89,6.91,2.73,13.34,6.65,18.95,11.52l1.82-2.36c-5.35-3.69-11.31-6.43-17.59-8.11-1.88-.5-2.62,2.28-.8,2.89,9.61,3.22,19.49,5.55,29.53,6.97.75.11,1.45-.12,1.77-.87.26-.62.07-1.57-.61-1.87-10.08-4.48-19.66-10.02-28.57-16.52l-1.51,2.59c9.5,4.5,19,9.01,28.5,13.51,1.74.82,3.26-1.76,1.51-2.59h0Z"/>
      <path class="cls-6" d="m2021.95,3810.77h.58c.21,0,.4-.04.58-.13.19-.06.35-.16.48-.31.15-.14.25-.3.31-.48.09-.18.14-.37.13-.58l-.05-.4c-.07-.25-.2-.47-.39-.66l-.3-.23c-.23-.14-.49-.2-.76-.2h-.58c-.21,0-.4.04-.58.13-.19.06-.35.16-.48.31-.15.14-.25.3-.31.48-.09.18-.14.37-.13.58l.05.4c.07.25.2.47.39.66l.3.23c.23.14.49.2.76.2h0Z"/>
      <path class="cls-6" d="m2107.88,3940.42c-3.95-4.21-7.98-8.35-12.08-12.41l-1.82,2.36c3.2,1.64,6.04,3.82,8.45,6.5l.66-2.51c-1.91.65-3.88,1.08-5.9,1.25-1.47.12-2.06,1.96-.76,2.8,2.51,1.62,5.13,3.04,7.86,4.26l1.16-2.74c-4.34-.94-8.38-2.75-11.98-5.35-.66-.47-1.67-.11-2.05.54-.44.76-.12,1.58.54,2.05,3.78,2.73,8.14,4.66,12.7,5.65.73.16,1.48-.16,1.77-.87.25-.63.08-1.56-.61-1.87-2.73-1.22-5.35-2.64-7.86-4.26l-.76,2.8c2.28-.19,4.52-.63,6.69-1.36,1.1-.37,1.44-1.64.66-2.51-2.56-2.85-5.65-5.22-9.06-6.97-1.47-.76-3.07,1.11-1.82,2.36,4.11,4.06,8.13,8.2,12.08,12.41,1.32,1.41,3.44-.71,2.12-2.12h0Z"/>
      <path class="cls-6" d="m1959.39,3838.64c17.21,8.28,34.43,16.56,51.84,24.42,17.3,7.81,34.8,15.35,52.67,21.76,9.78,3.51,19.93,6.36,30.4,6.38,1.93,0,1.93-3,0-3-9.17-.02-18.09-2.32-26.72-5.27s-17.51-6.51-26.14-10.06c-17.47-7.17-34.66-15.01-51.74-23.07-9.62-4.54-19.21-9.15-28.8-13.77-1.73-.83-3.26,1.75-1.51,2.59h0Z"/>
      <path class="cls-6" d="m2028.93,3901.46c-4.4-3.52-9.63-5.46-14.84-7.47-2.59-1-5.17-2.04-7.61-3.37-2.59-1.41-5.03-2.94-8.04-3.2-1.63-.14-1.83,2.02-.76,2.8,3.52,2.54,7.44,4.45,11.59,5.72,1.38.42,2.63-1.53,1.46-2.51-1.7-1.43-3.7-2.47-5.63-3.56-2.11-1.18-4.25-2.32-6.41-3.41s-4.2-2.07-6.34-3.04c-1.07-.48-2.14-.96-3.22-1.42-.55-.24-1.1-.47-1.65-.7-.29-.12-.58-.24-.87-.36-.62-.43-.87-.09-.73,1.02,1.63-1.02.13-3.62-1.51-2.59-.91.57-1.34,1.58-.95,2.62.46,1.22,1.74,1.57,2.83,2.02,2.62,1.09,5.21,2.26,7.77,3.49s4.9,2.42,7.31,3.72,5.17,2.55,7.28,4.33l1.46-2.51c-3.92-1.2-7.55-3.03-10.88-5.42l-.76,2.8c2.67.23,4.93,1.98,7.24,3.17s4.78,2.2,7.24,3.15c4.8,1.86,9.82,3.58,13.89,6.84,1.49,1.19,3.63-.92,2.12-2.12h0Z"/>
      <path class="cls-6" d="m2077.75,3919.97c-2.42-.46-4.85-.91-7.27-1.37-1.89-.35-2.65,2.28-.8,2.89,3.49,1.15,6.7,2.97,9.46,5.39l.3-2.36c-.86.43-1.72.86-2.59,1.29-.62.31-.81,1.07-.69,1.69.34,1.77,1.17,3.31,2.39,4.64l1.82-2.36c-.55-.38-1.1-.76-1.65-1.14l-1.16,2.74c.95.23,1.9.45,2.86.68,1.73.41,2.49-1.76,1.16-2.74-19.21-14.14-38.61-28.42-60.41-38.38-11.17-5.1-22.9-8.83-34.12-13.83s-20.69-10.96-30.1-17.96c-10.58-7.87-20.42-16.66-30.25-25.43-1.44-1.28-3.57.83-2.12,2.12,17.4,15.53,35.15,31.35,56.27,41.68,11.13,5.44,22.95,9.23,34.35,14.05s21.57,10.55,31.68,17.01c11.4,7.28,22.3,15.31,33.19,23.32l1.16-2.74c-.95-.23-1.9-.45-2.86-.68-1.7-.4-2.54,1.78-1.16,2.74.55.38,1.1.76,1.65,1.14,1.45,1.01,2.93-1.15,1.82-2.36-.88-.96-1.37-2.04-1.62-3.31l-.69,1.69c.86-.43,1.72-.86,2.59-1.29s1-1.74.3-2.36c-3.17-2.77-6.79-4.85-10.79-6.17l-.8,2.89c2.42.46,4.85.91,7.27,1.37,1.89.35,2.7-2.54.8-2.89h0Z"/>
      <path class="cls-6" d="m2059.72,3919.52c-10.41-5.88-20.7-12.34-31.73-17.02-1.72-.73-3.27,1.68-1.51,2.59,13.07,6.81,24.73,16.76,39.35,20.2,1.88.44,2.68-2.45.8-2.89-14.35-3.38-25.81-13.21-38.64-19.9l-1.51,2.59c11.02,4.68,21.32,11.14,31.73,17.02,1.68.95,3.2-1.64,1.51-2.59h0Z"/>
      <path class="cls-6" d="m1421.59,2400.51l-6.8,4.88,1.82,2.36c4.17-3.64,9.49-5.75,15.02-5.99l-.76-2.8c-4.99,3.66-10.56,6.38-16.53,8.02l1.16,2.74c5.75-4.4,12.27-7.59,19.28-9.39l-1.46-2.51c-6.39,5.2-14.03,8.66-22.11,10.19l1.46,2.51c6.71-5.27,14.09-9.65,21.89-13.09l-1.82-2.36c-4.95,4.84-10.84,8.64-17.31,11.09l1.46,2.51c8.13-6.82,17.41-12.25,27.34-15.99l-1.46-2.51c-5.49,4.88-11.68,8.88-18.36,11.94l1.51,2.59c9.2-5.55,18.4-11.1,27.6-16.65,1.65-1,.15-3.58-1.51-2.59-12.99,7.72-25.98,15.43-38.98,23.15l2.26,1.3c.08-.81.5-1.57,1.16-2.06,1.53-1.13.07-3.72-1.51-2.59-6.91,4.93-14.29,9.18-22.04,12.65-6.52,2.92-14.73,4.57-19.1,10.73-.89,1.26.83,2.79,2.05,2.05,8.18-4.93,16.75-9.2,25.64-12.71l-1.46-2.51c-10.14,9.71-22.38,16.75-34.49,23.69l1.82,2.36c10.24-9.7,21.01-19.84,34.76-24.18l-1.46-2.51c-12.92,10.05-26.57,19.17-40.78,27.3l1.82,2.36c8.25-7.79,16.88-15.91,27.88-19.54l-1.46-2.51c-6.61,6.17-13.97,11.46-21.92,15.78l1.82,2.36c3.6-3.48,7.55-6.52,11.84-9.1l-1.82-2.36c-2.58,2.09-5.44,3.78-8.48,5.1l2.2,1.69c.43-1.11,1.16-2.1,2.1-2.82,1.52-1.15.02-3.76-1.51-2.59-1.63,1.24-2.74,2.7-3.48,4.62-.53,1.37,1.15,2.15,2.2,1.69,3.29-1.43,6.3-3.31,9.08-5.57,1.34-1.08-.38-3.22-1.82-2.36-4.5,2.71-8.67,5.92-12.44,9.57-1.25,1.21.34,3.16,1.82,2.36,8.16-4.44,15.73-9.91,22.52-16.25,1.08-1-.04-2.98-1.46-2.51-11.52,3.8-20.55,12.14-29.2,20.31-1.25,1.18.35,3.2,1.82,2.36,14.44-8.26,28.26-17.55,41.39-27.77,1.21-.94-.11-2.93-1.46-2.51-14.27,4.5-25.45,14.87-36.09,24.95-1.25,1.18.35,3.2,1.82,2.36,12.33-7.07,24.77-14.26,35.1-24.15,1.02-.98-.03-3.07-1.46-2.51-9.13,3.61-17.94,7.94-26.35,13.01l2.05,2.05c1.95-2.75,5.07-4.34,8.11-5.61,3.58-1.48,7.2-2.81,10.73-4.42,7.45-3.4,14.55-7.53,21.22-12.28l-1.51-2.59c-1.6,1.17-2.46,2.67-2.64,4.65-.11,1.16,1.35,1.84,2.26,1.3,12.99-7.72,25.98-15.43,38.98-23.15l-1.51-2.59c-9.2,5.55-18.4,11.1-27.6,16.65-1.68,1.02-.21,3.38,1.51,2.59,6.91-3.17,13.28-7.36,18.96-12.41,1.09-.97-.06-3.04-1.46-2.51-10.45,3.93-20.11,9.58-28.67,16.76-1.12.94.08,3.03,1.46,2.51,6.97-2.64,13.31-6.65,18.64-11.87,1.3-1.27-.34-3.01-1.82-2.36-8.06,3.55-15.58,8.12-22.5,13.56-1.3,1.02.16,2.75,1.46,2.51,8.61-1.63,16.64-5.43,23.44-10.96,1.22-.99-.11-2.85-1.46-2.51-7.24,1.86-14.06,5.15-20,9.69-1.26.97-.62,3.23,1.16,2.74,6.2-1.7,12.06-4.51,17.25-8.32,1.1-.81.87-2.86-.76-2.8-6.35.27-12.35,2.68-17.14,6.87-1.27,1.11.43,3.36,1.82,2.36l6.8-4.88c1.55-1.12.06-3.72-1.51-2.59h0Z"/>
      <path class="cls-6" d="m1423.89,3255.97c-.98-4.16-.42-8.45-.33-12.67s-.18-8.84-.59-13.23c-.83-8.84-2.05-17.63-2.62-26.5-1.13-17.83-1.83-35.69-2.73-53.54-.51-10.11-1.01-20.23-1.52-30.34-.1-1.92-3.1-1.93-3,0,.9,18.06,1.81,36.11,2.71,54.17.45,8.91.85,17.83,1.36,26.74s1.59,17.85,2.53,26.78c.52,4.96.92,9.95.87,14.94s-.71,9.69.42,14.45c.44,1.88,3.34,1.08,2.89-.8h0Z"/>
      <path class="cls-6" d="m1416.26,3118.81c-3.8-12.53.31-25.78-1.71-38.54-.27-1.7-2.95-1.25-2.95.4,0,3.69.25,7.37.73,11.02.25,1.86,3.17,1.96,3,0-1.05-12.39-2.09-24.78-3.14-37.17-.16-1.91-3.16-1.93-3,0,1.05,12.39,2.09,24.78,3.14,37.17h3c-.49-3.66-.73-7.33-.73-11.02l-2.95.4c2.03,12.79-2.11,25.93,1.71,38.54.56,1.84,3.45,1.06,2.89-.8h0Z"/>
      <path class="cls-6" d="m1413.07,3054.4c-2.86-17.42-2.21-35.14-3.28-52.71-.3-4.97-.76-9.92-1.44-14.84-.11-.81-1.14-1.23-1.85-1.05-.87.23-1.16,1.05-1.05,1.85,2.39,17.49,1.62,35.2,2.97,52.76.38,4.95.94,9.89,1.75,14.8.31,1.9,3.2,1.09,2.89-.8h0Z"/>
      <path class="cls-6" d="m1408.85,2988.52c-2.2-18.25-1.45-36.68-2.85-54.99-.4-5.21-.98-10.4-1.82-15.55-.31-1.9-3.2-1.09-2.89.8,2.93,17.94,2.35,36.18,3.28,54.27.27,5.17.66,10.33,1.28,15.46.23,1.89,3.23,1.92,3,0h0Z"/>
      <path class="cls-6" d="m1402.15,2911.99c0,3.15,0,6.29,0,9.44,0,.78.69,1.54,1.5,1.5s1.5-.66,1.5-1.5c0-3.15,0-6.29,0-9.44,0-.78-.69-1.54-1.5-1.5s-1.5.66-1.5,1.5h0Z"/>
      <path class="cls-8" d="m1044.99,3186.15l15,24.77s204.14-111.57,222.82-134.81,116.22-175.01,116.22-175.01l-354.04,285.06Z"/>
      <line class="cls-8" x1="1399.03" y1="2901.09" x2="1392.73" y2="2906.16"/>
      <path class="cls-8" d="m1654.09,2909.86s2.34,76.05-46.27,22.78c-48.6-53.26-60.19-128.07-60.19-128.07-36.27-79.55-20.96-223.44-20.96-223.44,0,0-26.22-190.11-51.57-194.36-25.36-4.25-114.44,56.66-114.44,56.66-167.76,151.71,17.11,418,38.14,447.08-281.63-384.3,2.05-465.45,62.94-526.34,61.03-61.03,81.37,325.5,101.72,447.57,20.34,122.06,81.37,122.06,81.37,122.06-4.34-60.82-.34-113.3,9.25-159-7.56,63.81.01,135.06.01,135.06Z"/>
      <path class="cls-8" d="m2570.48,2415.03l-88.11-26.93c-384.89-190.7-460.94-191.86-460.94-191.86-102.95,4.67-106.46,98.27-106.46,98.27,26.91,125.17-99.44,224.61-99.44,224.61l-141.09,186.25c46.59-121.46,132.99-185.02,173.83-239.48,61.03-81.38,61.03-142.41,61.03-142.41-19.08-343.56,547.07,67.69,656.06,83.69l5.12,7.86Z"/>
      <rect class="cls-8" x="1655" y="2781.22" width="956.16" height="20.34" transform="translate(1083.35 -561.22) rotate(20)"/>
      <rect class="cls-8" x="2550.13" y="2903.28" width="40.69" height="81.38" transform="translate(1161.92 -701.61) rotate(20)"/>
      <rect class="cls-8" x="2580.2" y="2759.81" width="40.69" height="376.15" transform="translate(890.36 -591.62) rotate(15.63)"/>
      <ellipse class="cls-8" cx="2387.38" cy="2913.46" rx="61.03" ry="111.89"/>
      <ellipse class="cls-17" cx="2417.9" cy="2882.94" rx="10.17" ry="20.34"/>
      <path class="cls-8" d="m2285.66,2821.91s40.69-56.92,101.72-48.8c61.03,8.12,75.49,24.01,75.49,24.01,0,0-20.34-63.94-88.61-60.26-68.26,3.68-88.61,85.05-88.61,85.05Z"/>
      <path class="cls-4" d="m2224.63,2679.5s61.03-40.69,122.06-40.69c61.03,0,122.06,20.34,122.06,20.34,0,0,40.69-20.34,20.34-40.69-20.34-20.34-142.41-20.34-142.41-20.34,0,0-101.72,20.34-122.06,40.69-20.34,20.34,0,40.69,0,40.69Z"/>
      <path class="cls-2" d="m4675.79,6262.97v-35.22l937.61-127.74s42.18,16.22,55.15,47.04v115.92h-992.77Z"/>
      <rect class="cls-3" x="6335.51" y="1796.42" width="98.41" height="3448.02"/>
      <path class="cls-16" d="m6644.18,5120.13V1921.67s-111.83-183.41-210.25-89.47v3412.23s147.62,32.27,210.25-124.3Z"/>
      <path class="cls-2" d="m6899.16,2301.91v2514.04c-138.67,398.13-254.98,304.18-254.98,304.18V1921.67c210.25-17.89,254.98,380.24,254.98,380.24Z"/>
      <path class="cls-3" d="m8945.17,6132.87v134.85h-2751.02v-134.85l1200.92-231.7-186.01-1729.59s17.79-114.21-294.6-202.32v-438.2s395.77-21.94,549.14,340.29l241.49,2000.45,1240.08,261.07Z"/>
      <path class="cls-16" d="m8945.17,6132.87v134.85h-293.7l-1044.28-239.28s-218.64-1775.27-280.65-2016.76c-60.9-237.21-399.77-294.95-411.75-296.92h-15.63v-183.95h24.06c59.01-.64,400.51,10.18,540.38,340.54l241.49,2000.45,1240.08,261.07Z"/>
      <rect class="cls-3" x="6899.16" y="3714.76" width="15.3" height="254.5"/>
      <path class="cls-23" d="m9021.11,1772.99l314.19,314.19s-221.78,443.56-794.71,499.01c0,0,18.48-517.49,480.52-813.2Z"/>
      <path class="cls-26" d="m9047.17,1803.99l276.59,276.59s-195.24,390.48-699.61,439.29c0,0,16.27-455.56,423.02-715.88Z"/>
      <path class="cls-5" d="m9089.54,1844.99l182.85,182.85s-129.07,258.14-462.5,290.41c0,0,10.76-301.16,279.65-473.25Z"/>
      <path class="cls-18" d="m9110.45,1844.99l153,153s-108,216-387,243c0,0,9-252,234-396Z"/>
      <path class="cls-17" d="m11082.27,485.83c-2.89,370.63-127.67,527.03-230.07,667.16-135.7,185.7-1382.01,971.34-1382.01,971.34l-244.35-258.61-.03.03-258.9-244.62s785.63-1246.31,971.33-1382.01c140.15-102.41,296.55-227.2,667.25-230.07,120.38-.93,263.37,10.99,435.74,40.72.1,0,.19.03.29.05.01.06.02.13.03.19,29.73,172.41,41.66,315.42,40.72,435.82Z"/>
      <path class="cls-13" d="m9013.05,1866.29h389.39c44.71,0,81,36.29,81,81h-551.39c0-44.71,36.29-81,81-81Z" transform="translate(14370.3 9765.96) rotate(-135)"/>
      <circle class="cls-28" cx="10437.95" cy="661.49" r="400.5"/>
      <circle class="cls-22" cx="10437.95" cy="661.49" r="346.5"/>
      <path class="cls-28" d="m10073.45,1736.99l-9,342s0,126-153,225-369,243-369,243c0,0-45,9-36-54s99-63,36-279c0,0-27.5-54.5-63-90l594-387Z"/>
      <path class="cls-28" d="m9353.67,1026.37l-342,9s-126,0-225,153c-99,153-243,369-243,369,0,0-9,45,54,36,63-9,63-99,279-36,0,0,54.5,27.5,90,63l387-594Z"/>
      <ellipse class="cls-7" cx="9278.27" cy="1843.57" rx="331.33" ry="35.28" transform="translate(1413.94 7100.7) rotate(-45)"/>
      <path class="cls-13" d="m11091.27,476.83L10614.49.05c120.38-.93,263.37,10.99,435.74,40.72.1,0,.19.03.29.05.01.06.02.13.03.19,29.73,172.41,41.66,315.42,40.72,435.82Z"/>
      <path class="cls-2" d="m455.03,7793.99c27.98,162.6,275.14,1738.81,517.63,1818.09h872.04s191.2-9.33,195.86-200.52l-864.36,13.99s-212.13-180.78-480.65-1699.24l-240.53,67.69Z"/>
      <path class="cls-16" d="m223.37,4836.52s401.91-146.15,613.01,324.77,385.67,2314.01,385.67,2314.01c0,0-255.76,385.18-548.06,241.3l-450.62-2880.09Z"/>
      <rect class="cls-14" x="184.57" y="4780.6" width="329.15" height="3075.36" rx="142.23" ry="142.23" transform="translate(-833.44 101.85) rotate(-7.61)"/>
      <path class="cls-15" d="m1247.79,9132.18h2788.02c0,164.43-133.49,297.92-297.92,297.92H1545.72c-164.43,0-297.92-133.49-297.92-297.92h0Z"/>
      <path class="cls-9" d="m1247.79,8834.25h2788.02c0,164.43-133.49,297.92-297.92,297.92H1545.72c-164.43,0-297.92-133.49-297.92-297.92h0Z" transform="translate(5283.61 17966.43) rotate(180)"/>
      <path class="cls-2" d="m2121.66,9430.1h839.69c0,74.37-60.38,134.74-134.74,134.74h-570.21c-74.37,0-134.74-60.38-134.74-134.74h0Z"/>
      <rect class="cls-2" x="2375.08" y="9564.84" width="310.19" height="1317.14"/>
      <polygon class="cls-15" points="1709.86 11390.93 2320.98 11270.31 2722.35 11270.31 4155.57 11571.53 4199.24 11783.99 4132.69 11798.55 4103.58 11712.34 2722.35 11521.95 2320.98 11519.87 890.47 11702.88 863.43 11798.55 788.56 11798.55 838.48 11566.7 1709.86 11390.93"/>
      <polygon class="cls-15" points="2449.32 11543.27 2617.48 11543.27 2583.44 11798.55 2475.34 11798.55 2449.32 11543.27"/>
      <rect class="cls-16" x="2320.98" y="10881.98" width="401.37" height="684.72"/>
      <g>
        <circle class="cls-12" cx="832.79" cy="12018.71" r="247.23"/>
        <circle class="cls-24" cx="832.79" cy="12018.71" r="106.76"/>
      </g>
      <g>
        <circle class="cls-12" cx="2530.17" cy="12032.67" r="247.23"/>
        <circle class="cls-24" cx="2530.17" cy="12032.67" r="106.76"/>
      </g>
      <g>
        <circle class="cls-12" cx="4169.15" cy="12032.67" r="247.23"/>
        <circle class="cls-24" cx="4169.15" cy="12032.67" r="106.76"/>
      </g>
      <path class="cls-11" d="m6229.53,12076.19c-22.95-31.97-54.02-57.93-88.76-78.97-129.44-78.45-309.74-88.78-309.74-88.78l-200.81-55.12c2,14.5.86,32.69-3.91,51.74-10.3,41.15-33.67,70.75-52.19,66.11-18.52-4.64-25.17-41.76-14.87-82.91,4.91-19.59,12.77-36.56,21.67-48.47l-45.03-12.36c2.47,14.86,1.48,33.99-3.55,54.09-10.31,41.15-33.68,70.75-52.2,66.11-18.51-4.64-25.17-41.76-14.86-82.91,5.17-20.64,13.62-38.37,23.1-50.33l-21.83-6,9.9-69.27s511.38-50.23,496.28-167.59c0,0,827.56,146.45,922.56,132.27,71.52-10.67,160.6,93.19,224.05,181.32,20.84,28.94,38.92,56.19,52.7,77.12,34.78,52.81-519.98,91.96-942.51,113.95Z"/>
      <path class="cls-10" d="m5072.52,11487.66s-21.46,37.55-81.56,83.87c-58.93,45.42-155.02,99.28-304.46,134.44-39.07,9.19-81.78,17.1-128.42,23.25l-366.82-2755.6-2259.05-71.57s-594.96-49.21-720.21-791.79l-35.79-393.65,1194.39,169.98s-1.95,43.01,4.48,85.08c3.29,21.58,8.79,42.91,17.89,58.07,26.84,44.74,2192.48,501.02,2192.48,501.02,0,0,285.76,120.78,285.76,478.65,0,162.62,41.57,689.15,86.92,1215.3,54.46,631.75,114.39,1262.95,114.39,1262.95Z"/>
      <path class="cls-21" d="m5091.7,11800.9s-299.58,76.81-405.2,44.17v-139.1c149.44-35.16,245.53-89.02,304.46-134.44l100.74,229.37Z"/>
      <path class="cls-20" d="m5178.11,11729.22s-33.97,61.36-118.47,79.42-48.38-190.88-48.38-190.88c0,0-.22-26.18,45.87-18.5,46.09,7.68,120.98,129.95,120.98,129.95Z"/>
      <path class="cls-11" d="m4644.26,12257.94s-8.56-54.35-11.29-130.09c-2.88-80.58.85-185.39,28.57-274.7,0,0,416.71.26,516.57-123.93l126.88,34.83c-5.87,10.47-10.93,23.21-14.46,37.3-10.31,41.15-3.66,78.27,14.86,82.91s41.89-24.96,52.2-66.11c3.39-13.56,4.95-26.68,4.84-38.34l35.29,9.69c-7.73,11.58-14.48,26.99-18.86,44.49-10.31,41.16-3.65,78.28,14.87,82.91,18.52,4.64,41.88-24.96,52.19-66.11,4.25-16.96,5.62-33.24,4.45-46.84l16.18,4.44,21.83,6c-9.48,11.96-17.93,29.69-23.1,50.33-10.31,41.15-3.65,78.27,14.86,82.91,18.52,4.64,41.89-24.96,52.2-66.11,5.03-20.1,6.02-39.23,3.55-54.09l45.03,12.36c-8.9,11.91-16.76,28.88-21.67,48.47-10.3,41.15-3.65,78.27,14.87,82.91,18.52,4.64,41.89-24.96,52.19-66.11,4.77-19.05,5.91-37.24,3.91-51.74l200.81,55.12s180.3,10.33,309.74,88.78c34.74,21.04,65.81,47,88.76,78.97,6.98,9.74,13.22,20.03,18.56,30.91,5.25,10.66,9.65,21.88,13.09,33.7l26.65,33.66,9.84,12.43s15.36,19.2,23.04,71.05c7.69,51.85-1676.45,0-1676.45,0Z"/>
      <path class="cls-11" d="m5304.99,11764.05l57.44,15.76c.11,11.66-1.45,24.78-4.84,38.34-10.31,41.15-33.68,70.75-52.2,66.11s-25.17-41.76-14.86-82.91c3.53-14.09,8.59-26.83,14.46-37.3Z"/>
      <path class="cls-11" d="m5450.37,11803.95c1.17,13.6-.2,29.88-4.45,46.84-10.31,41.15-33.67,70.75-52.19,66.11-18.52-4.63-25.18-41.75-14.87-82.91,4.38-17.5,11.13-32.91,18.86-44.49l52.65,14.45Z"/>
      <path class="cls-11" d="m5535.89,11827.43c2.47,14.86,1.48,33.99-3.55,54.09-10.31,41.15-33.68,70.75-52.2,66.11-18.51-4.64-25.17-41.76-14.86-82.91,5.17-20.64,13.62-38.37,23.1-50.33l47.51,13.04Z"/>
      <path class="cls-11" d="m5626.31,11905.06c-10.3,41.15-33.67,70.75-52.19,66.11-18.52-4.64-25.17-41.76-14.87-82.91,4.91-19.59,12.77-36.56,21.67-48.47l49.3,13.53c2,14.5.86,32.69-3.91,51.74Z"/>
      <path class="cls-20" d="m5362.43,11779.81c.11,11.66-1.45,24.78-4.84,38.34-10.31,41.15-33.68,70.75-52.2,66.11s-25.17-41.76-14.86-82.91c3.53-14.09,8.59-26.83,14.46-37.3,11.28-20.11,25.55-31.86,37.73-28.81,12.42,3.1,19.5,20.82,19.71,44.57Z"/>
      <path class="cls-20" d="m6162.68,11611.75c.11,11.66-1.45,24.78-4.84,38.34-10.31,41.15-33.68,70.75-52.2,66.11s-25.17-41.76-14.86-82.91c3.53-14.09,8.59-26.83,14.46-37.3,11.28-20.11,25.55-31.86,37.73-28.81,12.42,3.1,19.5,20.82,19.71,44.57Z"/>
      <path class="cls-20" d="m6249.94,11620.17c.11,11.66-1.45,24.78-4.84,38.34-10.31,41.15-33.68,70.75-52.2,66.11s-25.17-41.76-14.86-82.91c3.53-14.09,8.59-26.83,14.46-37.3,11.28-20.11,25.55-31.86,37.73-28.81,12.42,3.1,19.5,20.82,19.71,44.57Z"/>
      <path class="cls-20" d="m6347.5,11638.57c.11,11.66-1.45,24.78-4.84,38.34-10.31,41.15-33.68,70.75-52.2,66.11s-25.17-41.76-14.86-82.91c3.53-14.09,8.59-26.83,14.46-37.3,11.28-20.11,25.55-31.86,37.73-28.81,12.42,3.1,19.5,20.82,19.71,44.57Z"/>
      <path class="cls-20" d="m6445.07,11653.85c.11,11.66-1.45,24.78-4.84,38.34-10.31,41.15-33.68,70.75-52.2,66.11s-25.17-41.76-14.86-82.91c3.53-14.09,8.59-26.83,14.46-37.3,11.28-20.11,25.55-31.86,37.73-28.81,12.42,3.1,19.5,20.82,19.71,44.57Z"/>
      <path class="cls-20" d="m5445.92,11850.79c-10.31,41.15-33.67,70.75-52.19,66.11-18.52-4.63-25.18-41.75-14.87-82.91,4.38-17.5,11.13-32.91,18.86-44.49,10.45-15.64,22.7-24.29,33.34-21.62,10.88,2.73,17.66,16.68,19.31,36.07,1.17,13.6-.2,29.88-4.45,46.84Z"/>
      <path class="cls-20" d="m5532.34,11881.52c-10.31,41.15-33.68,70.75-52.2,66.11-18.51-4.64-25.17-41.76-14.86-82.91,5.17-20.64,13.62-38.37,23.1-50.33,9.42-11.9,19.86-18.09,29.09-15.78,9.48,2.37,15.85,13.25,18.42,28.82,2.47,14.86,1.48,33.99-3.55,54.09Z"/>
      <path class="cls-20" d="m5626.31,11905.06c-10.3,41.15-33.67,70.75-52.19,66.11-18.52-4.64-25.17-41.76-14.87-82.91,4.91-19.59,12.77-36.56,21.67-48.47,9.79-13.1,20.83-20.07,30.53-17.64,9.95,2.48,16.47,14.35,18.77,31.17,2,14.5.86,32.69-3.91,51.74Z"/>
      <path class="cls-20" d="m4644.26,12257.94s-8.56-54.35-11.29-130.09c195.18,20.83,1040.71,103.68,1654.86,46.61l9.84,12.43s15.36,19.2,23.04,71.05c7.69,51.85-1676.45,0-1676.45,0Z"/>
      <path class="cls-21" d="m5850.41,11668.81c-106.25,40.18-351.6,70.31-351.6,70.31v-131.29c113.98-47.24,206.97-114.72,268.63-167.06,34.11,102.97,82.97,228.04,82.97,228.04Z"/>
      <path class="cls-19" d="m5850.41,11361.85s-29.86,33.84-82.97,78.92c-61.66,52.34-154.65,119.82-268.63,167.06-42.04,17.44-86.94,32.12-134.18,42.28l-406.5-1425.4c-45.35-526.15-86.92-1052.68-86.92-1215.3,0-357.87-285.76-478.65-285.76-478.65,0,0-2165.64-456.28-2192.48-501.02-9.1-15.16-14.6-36.49-17.89-58.07l2610.53,494.18s192.18,21.36,290.94,346.99,573.86,2549.01,573.86,2549.01Z"/>
      <path class="cls-20" d="m5751.75,11494.05s18.51-48.21,98.65-44.19c80.14,4.02,122.32,121.68,122.32,121.68,0,0-24.06,78.89-159.09,109.34s-61.88-186.82-61.88-186.82Z"/>
      <path class="cls-20" d="m6249.95,11356.94c1.93,0,1.93-3,0-3s-1.93,3,0,3h0Z"/>
      <path class="cls-20" d="m6229.53,12076.19c-22.95-31.97-54.02-57.93-88.76-78.97,244.26-15.5,712.6-48.13,978.57-112.1,20.84,28.94,38.92,56.19,52.7,77.12,34.78,52.81-519.98,91.96-942.51,113.95Z"/>
      <path class="cls-20" d="m7313.69,11793.35c-2.44,5.79-6.38,11.43-11.72,16.92,20.81-42.92,29-57.87,11.72-16.92Z"/>
      <rect class="cls-16" x="2764.61" y="6267.72" width="6820.16" height="286.94"/>
      <rect class="cls-1" x="3279.24" y="6554.66" width="5797.48" height="196.4"/>
      <rect class="cls-16" x="8676.76" y="6751.06" width="268.4" height="5576.54"/>
      <rect class="cls-16" x="3406.76" y="6751.06" width="268.4" height="5576.54"/>
      <path class="cls-13" d="m1164.64,4200.76s542,50.31,653.8,116.7c111.79,66.39,316.06,311.51,397.76,928.01l20.43,167.12s16.71,737.2,9.28,774.34c-7.43,37.14,167.12,889.47,194.98,1095.59,27.85,206.12,46.42,434.52,33.42,562.65-13,128.13-336.11,105.85-336.11,105.85,0,0-999.03-172.7-1006.46-172.7s-252.54-1370.42-237.69-1420.56c0,0-102.13-679.64-92.85-831.91,9.28-152.27-50.14-707.49,39-917.33,89.13-209.83,63.93-329.04,324.43-407.78Z"/>
      <path class="cls-19" d="m2175.78,5371.91s-791.32-857.17-1018.26-929.71-479.05,337.15-103.3,728.79c375.75,391.64,1121.56,817.33,1121.56,817.33v-616.4Z"/>
      <path class="cls-27" d="m4807.99,5865.45l120.95-38.46s39.82-15.64,85.32,63.99c45.5,79.63,207.61,251.69,207.61,251.69,0,0-51.19,21.33-76.79,19.91,0,0-159.26-141.95-166.37-168.38,0,0-19.91-12.21-45.5,13.39-25.6,25.6-393.88,240.31-393.88,240.31,0,0-115.38,7.6-135.19-11.13l403.86-371.31Z"/>
      <path class="cls-6" d="m2164.78,5376.42l570.27,447.84,1536.24,194.17,514.74-180.05s165.23,203.35,260.55,324.1c0,0,16.95,48.72-61.43,31.77l-182.17-190.64-413.06,241.48s-59.31,40.25-220.3,0l-654.55-40.25-745.63-2.12s-59.31,4.24-154.63-63.55c-95.32-67.78-450.01-292.32-450.01-292.32v-470.42Z"/>
      <path class="cls-27" d="m2194.91,5244.44l687.51,537.12s12.28,27.18,187.22,38.14l1293.93,166.45s-93.48,51.8-181.14,21.05l-1425.97-180.23s-60.92-22.42-78.74-47.73c-17.82-25.31-440.64-346.04-440.64-346.04l-42.18-188.77Z"/>
      <path class="cls-13" d="m2184.51,5256.09c1.43,2.33-.01,5.01-1.46,6.93-1.86,2.45-3.95,4.76-5.92,7.12-.52.62-.61,1.51,0,2.12.53.53,1.6.62,2.12,0,2.3-2.75,4.84-5.43,6.87-8.39,1.85-2.7,2.81-6.33.98-9.3-1.01-1.64-3.6-.14-2.59,1.51h0Z"/>
      <path class="cls-13" d="m2193.8,5269.73c7.84,5.34,8.06,15.8,7.65,24.29-.24,5.02-.4,9.97.2,14.98s1.63,9.8,2.53,14.68c3.72,20.25,3.28,40.92,5.43,61.34.91,8.6,1.75,18.9,8.84,24.89.37.31.9-.22.53-.53-6.69-5.65-7.63-15.25-8.52-23.39-1.13-10.28-1.56-20.61-2.17-30.92s-1.38-20.19-3.14-30.15c-.91-5.14-2.05-10.25-2.7-15.43s-.51-10.27-.26-15.46c.43-8.8.06-19.43-8.02-24.93-.4-.27-.78.38-.38.65h0Z"/>
      <path class="cls-13" d="m2207.93,5267.39c.69,18.49,1.95,36.96,3.53,55.4s3.48,36.86,5.42,55.27c1.01,9.59,1.34,19.71,4.66,28.86.16.45.89.26.72-.2-2.99-8.27-3.42-17.27-4.34-25.95-.97-9.12-1.92-18.25-2.84-27.37-1.84-18.33-3.51-36.69-4.76-55.07-.7-10.3-1.26-20.62-1.64-30.94-.02-.48-.77-.48-.75,0h0Z"/>
      <path class="cls-13" d="m2200.18,5261.89c.48,0,.48-.75,0-.75s-.48.75,0,.75h0Z"/>
      <path class="cls-13" d="m2193.97,5270.64c6.19,9.74,5.78,21.76,4.98,32.83-.84,11.69-1.81,23.45-.25,35.13.86,6.4,2.5,12.67,5.22,18.54.13.29.62.22.69-.09,1.45-7.28,1.11-14.78-1.02-21.89-.12-.4-.74-.33-.74.1.28,18.47.59,37.49,7.2,55,1.84,4.88,4.15,9.57,6.87,14.02.25.41.9.03.65-.38-4.81-7.88-8.21-16.47-10.28-25.47s-2.91-18.26-3.31-27.48c-.23-5.23-.31-10.46-.39-15.7l-.74.1c2.09,6.98,2.45,14.34,1.02,21.49l.69-.09c-5.1-11.02-6.18-23.28-5.93-35.28s2.28-23.05,1.23-34.52c-.54-5.89-2.06-11.68-5.26-16.7-.26-.41-.91-.03-.65.38h0Z"/>
      <path class="cls-13" d="m2194.4,5264.88c-3.08,22.4,2.38,44.6,4.98,66.75.75,6.38,1.25,12.78,1.28,19.21,0,.48.74.48.75,0,.19-9.81.37-19.62.56-29.43.09-4.77.23-9.55.25-14.32s-.23-9.11-1.34-13.56c-1.24-4.99-3.15-9.91-2.68-15.13h-.75c2.01,26.68,4.03,53.36,6.04,80.04.53,7.03.89,14.13,2.5,21.02.11.47.83.27.72-.2-1.49-6.34-1.88-12.85-2.37-19.33s-1-13.26-1.5-19.89c-.99-13.09-1.98-26.18-2.96-39.28-.56-7.46-1.13-14.91-1.69-22.37-.04-.48-.71-.48-.75,0-.4,4.36.84,8.54,2,12.69,1.3,4.64,1.95,9.25,2.01,14.07.12,9.65-.31,19.32-.49,28.97-.11,5.57-.21,11.14-.32,16.71h.75c-.08-22.4-6.17-44.22-7.09-66.56-.26-6.41-.07-12.84.8-19.2.06-.47-.66-.68-.72-.2h0Z"/>
    </g>
  </g>
</svg>